<svg width="801" height="1397" viewBox="0 0 801 1397" fill="none" xmlns="http://www.w3.org/2000/svg">
<path d="M326.292 147.598C257.827 118.447 289.284 33.5509 198.187 17.4997C71.3167 -4.85473 -6.56628 -6.79167 -132.987 17.4997C-718.723 130.048 -728.599 1325.05 -132.987 1383.53C-34.1161 1393.24 34.2613 1413.69 121.324 1370.86C197.46 1333.41 228.751 1288.25 260.816 1216.26C326.292 1069.27 346.219 1094.61 457.243 1069.27C543.622 1049.55 572.063 982.254 572.063 893.55C572.063 784.543 457.243 853 474.324 749.091C489.836 654.724 572.063 645.181 688.78 607.166C823.237 563.372 823.296 401.295 759.949 286.989C717.69 210.734 666.772 158.596 572.063 147.598C462.937 134.926 457.243 203.354 326.292 147.598Z" fill="#7765A8" fill-opacity="0.15"/>
</svg>
