<svg id="Layer_1" data-name="Layer 1" xmlns="http://www.w3.org/2000/svg" xmlns:xlink="http://www.w3.org/1999/xlink" viewBox="0 0 1250 1036.5"><defs><style>.cls-1{fill:none;}.cls-2{clip-path:url(#clip-path);}.cls-3{fill:#bcbbda;}.cls-4{fill:#6f7fa3;}.cls-5{fill:#969dbf;}.cls-6{fill:#6c5a9f;}.cls-7,.cls-87{opacity:0.15;}.cls-12,.cls-17,.cls-20,.cls-23,.cls-25,.cls-33,.cls-46,.cls-48,.cls-58,.cls-7,.cls-87{isolation:isolate;}.cls-8{fill:#5f518e;}.cls-9{fill:#4d437a;}.cls-10{fill:#1d315c;}.cls-11{fill:#162b4c;}.cls-12,.cls-17,.cls-20,.cls-23{opacity:0.2;}.cls-13{fill:#37474f;}.cls-14,.cls-25{fill:#263238;}.cls-15,.cls-17{fill:#f0e790;}.cls-16{opacity:0.3;}.cls-18{fill:#f67b8d;}.cls-19{fill:#b9e7a9;}.cls-20{fill:#34655b;}.cls-21{fill:#c9cdea;}.cls-22,.cls-23{fill:#4861ac;}.cls-24{fill:#332d60;}.cls-25{opacity:0.33;}.cls-26{fill:#e0e0de;}.cls-27{fill:#8fd6e6;}.cls-28{fill:#fffef5;}.cls-29{fill:#3f3a6d;}.cls-30{fill:#d7f4f9;}.cls-31{fill:#98d5d8;}.cls-32{fill:#b9e8ed;}.cls-33{opacity:0.06;}.cls-34{opacity:0.27;}.cls-35{fill:#38655a;}.cls-36{opacity:0.47;}.cls-37{fill:#b8c1c9;}.cls-38{fill:#49a1aa;}.cls-39{fill:#398a8e;}.cls-40{fill:#0d9f79;}.cls-41{fill:#bcddaa;}.cls-42{opacity:0.23;}.cls-43{fill:#5db3c1;}.cls-44{fill:#38407e;}.cls-45{fill:#2ebfcc;}.cls-46{opacity:0.13;}.cls-47{fill:#31356f;}.cls-48{opacity:0.25;fill:url(#linear-gradient);}.cls-49{fill:#67c4d3;}.cls-50{fill:#459fa8;}.cls-51{fill:#03336e;}.cls-52{fill:#84c7d3;}.cls-53{fill:#084c94;}.cls-54{fill:#001a46;}.cls-55{fill:#72b5e8;}.cls-56{fill:#eb4680;}.cls-57{fill:#daf6f7;}.cls-58{fill:#022652;opacity:0.8;}.cls-59{fill:#2672ab;}.cls-60{clip-path:url(#clip-path-2);}.cls-61{fill:#4db0c1;}.cls-62{fill:#1a5f66;}.cls-63{fill:#d9faff;}.cls-64{fill:#fff;}.cls-65{fill:#373f7e;}.cls-66{fill:#d96283;}.cls-67{fill:#20a17a;}.cls-68{opacity:0.43;}.cls-69{fill:#f6cab7;}.cls-70{opacity:0.16;}.cls-71{fill:#198a64;}.cls-72{fill:#0f875f;}.cls-73{fill:#a1d68e;}.cls-74{fill:#353e7c;}.cls-75{fill:#424e89;}.cls-76{fill:#263260;}.cls-77{fill:#f8f0b2;}.cls-78{fill:#1ca079;}.cls-79{fill:#36417f;}.cls-80{fill:#333;}.cls-81{fill:#dbeae7;}.cls-82{fill:#2dbfcb;}.cls-83{fill:#9dd8e9;}.cls-84{fill:#ee9b5f;}.cls-85{fill:#f8f5b4;}.cls-86{fill:#f0e88f;}.cls-88{fill:#bfbfbf;}.cls-89{fill:#6c758a;}</style><clipPath id="clip-path"><path class="cls-1" d="M356,55.1C246.2,93,150.8,159.3,98.2,266.6,32.5,400.7-25.2,636.7,130.6,733.4c48.4,30,103.5,45.9,151.6,77.1,47,30.5,89.1,67.7,133.2,102.1C469.6,955,532.9,997,603,1005.2c84.5,9.9,165.5-22.7,240.5-57.9,84-39.5,167.7-92.1,232-159.7,87.4-91.7,140.9-216.9,148.3-344.2,7.1-121.5-23.7-258.5-129.2-330.6-103.8-71-234.4-87-356.7-97C610.3,5.3,477.8,13,356,55.1Z"/></clipPath><linearGradient id="linear-gradient" x1="292.1" y1="2185.63" x2="292.1" y2="2021.76" gradientTransform="translate(0 -1606.56)" gradientUnits="userSpaceOnUse"><stop offset="0" stop-color="#d7ea68" stop-opacity="0"/><stop offset="1" stop-color="#d7ea68"/></linearGradient><clipPath id="clip-path-2"><polygon class="cls-1" points="377.6 607.5 377.6 668.7 294.3 716.8 294.3 655.7 325 637.9 377.6 607.5"/></clipPath></defs><title>Character-06</title><g class="cls-2"><rect class="cls-3" x="33.9" y="-8.9" width="1216.1" height="1062.7"/><polygon class="cls-4" points="12.6 803.3 789.6 348.5 789.6 0 33.9 -8.9 12.6 803.3"/><polygon class="cls-5" points="789.6 360.6 1240.4 623.8 1240.4 6.9 789.6 -8.9 789.6 360.6"/><path class="cls-6" d="M742.5,267.5a6.19,6.19,0,0,0,.7,1.9,18.7,18.7,0,0,0,4.7,5.4,3.13,3.13,0,0,0,2.7.8,4.7,4.7,0,0,0,.9-.6,22.38,22.38,0,0,0,3.3-3.6,7.58,7.58,0,0,0,1.4-4.6,1.88,1.88,0,0,0-.2-.8,1.62,1.62,0,0,0-.9-.5,30.67,30.67,0,0,0-4.2-.7c-1.4,0-2.6.7-3.9.8-.9.1-1.5-.5-2.4-.5A2.13,2.13,0,0,0,742.5,267.5Z"/><polygon id="Shadow" class="cls-7" points="880.5 413.6 771.6 350.5 624.8 435.2 733.7 498.3 880.5 413.6"/><polygon id="Shadow-2" data-name="Shadow" class="cls-7" points="883.5 430.4 774.6 367.3 627.8 452 736.7 515.1 883.5 430.4"/><path class="cls-8" d="M748.8,486l-89.4-51.6,4.2-216.6,79.7,48.1c4.2,1.7,5.4,4.5,5.4,9.5l.1,210.6Z"/><path class="cls-9" d="M754.7,265.7l117.5-69.9,4.4,216.4L748.9,486V275.4C748.8,269.4,751.2,268.2,754.7,265.7Z"/><path class="cls-10" d="M872.1,195.8l1.2,54.3.5,55.2,1.5,52.8c.1,18.1,1.9,36.1,1.9,54.2v.4l-.3.2-64,36.7-32,18.3-32.1,18.2,31.8-18.7,31.8-18.6,63.8-37.1-.3.6c0-18.1-2-36.1-1.9-54.2l-1.2-52.8-.1-55.2Z"/><path class="cls-6" d="M867.7,200.6,757.1,264.5c-5,3.7-10,3.7-15.8.3l-71.2-41.1c-9.4-4.1-7.6-8.8.9-12.7l116.2-67.1L868.7,191C873.2,194.2,873.7,197.1,867.7,200.6Z"/><polygon class="cls-6" points="761.5 408.5 863.7 349.5 863.7 399.4 866.1 400.8 763.9 459.7 761.5 458.4 761.5 408.5"/><polygon class="cls-7" points="378.2 691 290.9 640.5 192.4 697.4 279.7 747.8 378.2 691"/><polygon class="cls-11" points="763.9 409.9 866.1 350.9 866.1 400.8 763.9 459.7 763.9 409.9"/><polygon class="cls-9" points="763.9 409.9 866.1 350.9 866.1 400.8 763.9 459.7 763.9 409.9"/><polygon class="cls-6" points="761.5 344 863.7 285 863.7 334.8 866.1 336.2 763.9 395.2 761.5 393.8 761.5 344"/><polygon class="cls-11" points="763.9 345.3 866.1 286.3 866.1 336.2 763.9 395.2 763.9 345.3"/><polygon class="cls-9" points="763.9 345.3 866.1 286.3 866.1 336.2 763.9 395.2 763.9 345.3"/><path class="cls-11" d="M803.9,334.2l17.4-10c2.3-1.3,4.1-.7,4.1,1.3s-1.8,4.7-4.1,6l-17.4,10c-2.3,1.3-4.1.7-4.1-1.3S801.7,335.5,803.9,334.2Z"/><polygon class="cls-12" points="761.5 279.4 863.7 220.4 863.7 270.2 761.5 329.2 761.5 279.4"/><polygon class="cls-13" points="914.4 259.5 857.7 226.8 857.7 268.2 914.4 300.9 914.4 259.5"/><polygon class="cls-8" points="914.4 259.5 857.7 226.8 857.7 268.2 914.4 300.9 914.4 259.5"/><path class="cls-14" d="M763.5,322.6l94.2-54.4,56.7,32.7s-94.2,55-94.2,54.4S763.5,322.6,763.5,322.6Z"/><path class="cls-15" d="M796.3,281.8v6.8a3,3,0,0,0,1.5,2.6l48.7,28.1a3,3,0,0,0,2.9.3l51.7-29.9a2.51,2.51,0,0,0,1-2.3,8.48,8.48,0,0,0-3.9-6.5l-50.2-29Z"/><g class="cls-16"><path class="cls-15" d="M796.3,281.8v6.8a3,3,0,0,0,1.5,2.6l48.7,28.1a3,3,0,0,0,2.9.3l51.7-29.9a2.51,2.51,0,0,0,1-2.3,8.48,8.48,0,0,0-3.9-6.5l-50.2-29Z"/></g><path class="cls-17" d="M846.5,310.8l-50.2-29v6.8a3,3,0,0,0,1.5,2.6l48.7,28.1c2.2,1.3,3.9.4,3.9-2A8.12,8.12,0,0,0,846.5,310.8Z"/><path class="cls-18" d="M844.2,312.3a2.85,2.85,0,0,1,1.3,2.2c0,.8-.6,1.1-1.3.7l-47.9-27.7v-2.9Z"/><path class="cls-19" d="M902.2,272.6v6.8a3,3,0,0,1-1.5,2.6L852,310.1a3,3,0,0,1-2.9.3l-51.7-29.9a2.51,2.51,0,0,1-1-2.3,8.48,8.48,0,0,1,3.9-6.5l50.2-29Z"/><path class="cls-20" d="M852,301.6l50.2-29v6.8a3,3,0,0,1-1.5,2.6L852,310.1c-2.2,1.3-3.9.4-3.9-2A8,8,0,0,1,852,301.6Z"/><path class="cls-20" d="M854.3,303.1a2.85,2.85,0,0,0-1.3,2.2c0,.8.6,1.1,1.3.7l47.9-27.7v-2.8Z"/><path class="cls-21" d="M796.3,262.7v6.8a3,3,0,0,0,1.5,2.6l48.7,28.1a3,3,0,0,0,2.9.3l51.7-29.9a2.51,2.51,0,0,0,1-2.3,8.48,8.48,0,0,0-3.9-6.5l-50.2-29Z"/><path class="cls-22" d="M846.5,291.7l-50.2-29v6.8a3,3,0,0,0,1.5,2.6l48.7,28.1c2.2,1.3,3.9.4,3.9-2A8.27,8.27,0,0,0,846.5,291.7Z"/><path class="cls-23" d="M846.5,291.7l-50.2-29v6.8a3,3,0,0,0,1.5,2.6l48.7,28.1c2.2,1.3,3.9.4,3.9-2A8.27,8.27,0,0,0,846.5,291.7Z"/><path class="cls-23" d="M844.2,293.3a2.85,2.85,0,0,1,1.3,2.2c0,.8-.6,1.1-1.3.7l-47.9-27.7v-2.8Z"/><polygon class="cls-6" points="861.6 224.5 857.7 226.8 914.4 259.5 918.3 257.2 861.6 224.5"/><polygon class="cls-8" points="820.1 313.9 763.5 281.2 763.5 322.6 820.1 355.3 820.1 313.9"/><polygon class="cls-6" points="767.4 278.9 763.5 281.2 820.1 313.9 824.1 311.6 767.4 278.9"/><polygon class="cls-9" points="819 310.4 921.2 251.4 921.2 301.3 819 360.3 819 310.4"/><path class="cls-24" d="M859,299.3l17.4-10c2.3-1.3,4.1-.7,4.1,1.3s-1.8,4.8-4.1,6l-17.4,10c-2.3,1.3-4.1.7-4.1-1.3S856.8,300.6,859,299.3Z"/><path class="cls-24" d="M808.6,391.2l17.4-10c2.3-1.3,4.1-.7,4.1,1.3s-1.8,4.8-4.1,6l-17.4,10c-2.3,1.3-4.1.7-4.1-1.3S806.4,392.5,808.6,391.2Z"/><polygon class="cls-8" points="819 310.4 815.6 308.5 815.6 358.3 819 360.3 819 310.4"/><polygon class="cls-6" points="815.6 308.5 917.8 249.5 921.2 251.4 819 310.4 815.6 308.5"/><polygon id="Shadow-2-2" data-name="Shadow-2" class="cls-25" points="720 231.4 688 212.9 746.4 179.2 778.4 197.7 720 231.4"/><polygon class="cls-26" points="721.4 222.5 724.1 223.7 773.4 195.3 770.7 194 721.4 222.5"/><polygon class="cls-27" points="770.7 194 723.8 221.1 717 150.9 763.9 123.8 770.7 194"/><path class="cls-28" d="M770.4,114.9,712,148.6l8,82.8,58.4-33.7Zm3,80.4-49.3,28.5L717,151l49.3-28.5Z"/><polygon class="cls-26" points="773.4 195.3 770.7 194 763.9 123.8 766.3 122.4 773.4 195.3"/><polygon class="cls-26" points="770.4 114.9 767.7 113.6 709.3 147.3 712 148.6 770.4 114.9"/><polygon class="cls-26" points="709.3 147.3 712 148.6 720 231.3 717.3 230.1 709.3 147.3"/><path class="cls-7" d="M589.7,452.8,343.2,595.1c-6.4,3.7-11.5,12.6-11.5,19.9v23.3c0,7.3,5.1,16.2,11.5,19.9,0,0,415.6,238.5,419.8,238.5s258.1-145.2,258.1-145.2c6.3-3.7,11.5-12.6,11.5-19.9V708.3c0-7.3-5.2-16.2-11.5-19.9L612.7,452.8C606.4,449.1,596.1,449.1,589.7,452.8Z"/><path class="cls-6" d="M335.3,640.2l-31.6-18.3a12.94,12.94,0,0,1-5.8-10V426.1a12.41,12.41,0,0,1,5.8-10l258.1-149a12.92,12.92,0,0,1,11.5,0l31.6,18.3a12.57,12.57,0,0,1,5.7,10V481.3a13.16,13.16,0,0,1-5.7,10l-258.1,149A12.61,12.61,0,0,1,335.3,640.2Z"/><path class="cls-12" d="M610.6,295.3V481.2a13.16,13.16,0,0,1-5.7,10l-258.1,149c-3.2,1.8-5.8.3-5.8-3.3V451a13.16,13.16,0,0,1,5.7-10L604.8,292C608.1,290.2,610.6,291.7,610.6,295.3Z"/><path class="cls-12" d="M345.5,640.8a13,13,0,0,1-10.2-.6l-31.6-18.3a12.57,12.57,0,0,1-5.7-10V426.1a11.13,11.13,0,0,1,1.7-5.6l43.1,24.9a12.59,12.59,0,0,0-1.7,5.6V636.9C341.1,640,343,641.6,345.5,640.8Z"/><path class="cls-8" d="M801.9,822.4l-26.7-15.3a6.35,6.35,0,0,0-5.7,0l-26.6,15.3a6.69,6.69,0,0,0-2,2.1,1.69,1.69,0,0,0-.2.5,4.65,4.65,0,0,0-.6,2.3v37.1c0,7,.9,10.3,7.2,13.9,7.1,4.1,14.5,7.6,21.6,11.7a10.32,10.32,0,0,0,3,1.4c3.4.8,7.1-2.8,9.8-4.3l9-5.2,11.2-6.5a6.41,6.41,0,0,0,2.9-5V827.2A6.67,6.67,0,0,0,801.9,822.4Z"/><path class="cls-9" d="M775.3,891l.7-.3c7.9-3.8,15.2-8.7,23-12.6,2.6-1.7,5.8-4.3,5.8-7.6V827.3c0-1.8-1.3-2.6-2.9-1.7l-26.7,15.5a6.41,6.41,0,0,0-2.9,5v36.3c0,1.8-1.4,8.7,1.6,8.9A3.19,3.19,0,0,0,775.3,891Z"/><path class="cls-8" d="M1028.3,691.7l-26.6-15.4a6.35,6.35,0,0,0-5.7,0l-26.6,15.4a6.69,6.69,0,0,0-2,2.1,1.69,1.69,0,0,0-.2.5,4.65,4.65,0,0,0-.6,2.3v43.2c0,5.8,8.8,8.5,12.9,10.8,5,2.8,10,5.7,15,8.5a10.28,10.28,0,0,0,4.5,1.7c3.1,0,6.5-2.8,9.1-4.3l9-5.2,11.3-6.5a6.41,6.41,0,0,0,2.9-5V696.6A6.62,6.62,0,0,0,1028.3,691.7Z"/><path class="cls-9" d="M1001.7,760.1a27.06,27.06,0,0,0,3.7-2.1c4.6-2.6,9.1-5.3,13.8-7.9,4.1-2.2,10.3-4.3,11.8-9.2.9-3,.2-6.3.2-9.3v-35c0-1.8-1.3-2.6-2.9-1.7l-26.6,15.4a6.41,6.41,0,0,0-2.9,5v43.2C998.8,760.7,1000.2,760.7,1001.7,760.1Z"/><path class="cls-29" d="M599.1,432.2,352.6,574.6c-6.4,3.7-11.5,12.6-11.5,19.9v10.9c0,7.3,5.1,16.2,11.5,19.9L760.9,861c6.3,3.7,16.6,3.7,23,0l246.6-142.4c6.3-3.7,11.5-12.6,11.5-19.9V687.8c0-7.3-5.2-16.2-11.5-19.9L622.1,432.2C615.8,428.5,605.5,428.5,599.1,432.2Z"/><path class="cls-9" d="M1041.9,687.9v10.9c0,7.3-5.2,16.2-11.5,19.9L783.9,861a23,23,0,0,1-11.5,2.7V826.3a24.05,24.05,0,0,0,11.5-2.7l246.6-142.4c5.9-3.5,6.3-8.8,1.2-12.5C1037.4,672.7,1041.9,680.9,1041.9,687.9Z"/><path class="cls-8" d="M352.6,587.8c-6-3.5-6.3-9-.9-12.7-5.9,4-10.6,12.3-10.6,19.3v10.9c0,7.3,5.1,16.2,11.5,19.9L760.9,860.9a24.14,24.14,0,0,0,11.5,2.8V826.2a24.05,24.05,0,0,1-11.5-2.7Z"/><path class="cls-6" d="M278.8,611.8c-.2.2-.2.4-.3.6a7.58,7.58,0,0,0-.3,1.6,6.29,6.29,0,0,0,1.7,3.8,10.45,10.45,0,0,0,2.1,2.1,11.66,11.66,0,0,0,4.1,1.8,7.42,7.42,0,0,0,2.5.5,5.32,5.32,0,0,0,3.9-1.8,9.5,9.5,0,0,0,2.1-3.8,8.55,8.55,0,0,0,.4-3.2,3.66,3.66,0,0,0-1.6-2.7c-2-1.3-5.7-.8-7.9-.8a11.71,11.71,0,0,0-2.6.4C281.7,610.7,279.6,611,278.8,611.8Z"/><path class="cls-30" d="M599.1,370.1,352.6,512.4c-6.4,3.7-11.5,12.6-11.5,19.9v23.3c0,7.3,5.1,16.2,11.5,19.9L760.9,811.2c6.3,3.7,16.6,3.7,23,0l246.6-142.4c6.3-3.7,11.5-12.6,11.5-19.9V625.6c0-7.3-5.2-16.2-11.5-19.9L622.1,370.1C615.8,366.4,605.5,366.4,599.1,370.1Z"/><path class="cls-31" d="M1041.9,625.7V649c0,7.3-5.2,16.2-11.5,19.9L783.9,811.2a23,23,0,0,1-11.5,2.7V764.1a24.05,24.05,0,0,0,11.5-2.7l246.6-142.3c5.9-3.5,6.3-8.8,1.2-12.5C1037.4,610.6,1041.9,618.8,1041.9,625.7Z"/><path class="cls-32" d="M352.6,525.7c-6-3.5-6.3-9-.9-12.7-5.9,4-10.6,12.3-10.6,19.3v23.3c0,7.3,5.1,16.2,11.5,19.9L760.9,811.2a23,23,0,0,0,11.5,2.7V764.1a24.05,24.05,0,0,1-11.5-2.7Z"/><path class="cls-33" d="M640.9,449.4c1.4-8.1,2.8-10.1-7.6-19.7l-41.9-38.8c-5.8-5.3-11.4-8.1-15.5-8h0c-10.4-.8-56.3,21.3-79.4,34.5s-73.9,45.6-83.6,60.2c-3.2,4.8,55.2,71.6,65.4,69.8,22.9-4.1,66.6-24.8,89.5-38.8,37.6-22.9,60.1-42.6,68.4-51.1C640.3,453.5,640.6,451.1,640.9,449.4Z"/><path class="cls-8" d="M370.1,694.4a2.66,2.66,0,0,1-1.8-.6l-13.4-7.7,15.2-5.4v13.7Z"/><path class="cls-8" d="M294.3,725.6c0,4.3,1.4,9.4,0,13.5a4,4,0,0,1-1.9-.7c-2.9-1.7-5.9-3.5-8.7-5L272,726.6l-41.7-24.1c-7.2-4.2-14.8-8-21.7-12.5-3.5-2.3-1.3-9.2-1.1-12.5a16.2,16.2,0,0,0-.1-2.2c7.5,3.8,14.7,8.5,21.9,12.7l37.1,21.5,26.1,15.1Z"/><path class="cls-8" d="M286.6,624.8v78.8c0,5.6.3,11.1.4,16.7,0,2.9,1.2,11.8-4.2,8.3-12.4-8.2-25.4-15.5-38.3-23l-29.8-17.2c-.9,0-2.8-1.6-3.6-2.1-2.2-1.2-3.7-2-5.3-2.9-4.8-2.4-4.6-7.2-4.6-9.9V662.2l.1-96.5,78.3,46.5C284.7,614.2,287.2,618.3,286.6,624.8Z"/><path class="cls-9" d="M296.1,610.8l86.8-51.2.4,109.8v2.5c0,3.5-3.4,5.2-6.1,6.4-8,3.7-14.1,7.5-21.7,11.9L315,713.6l-25,14.5c-1.9.9-3.1.7-3.3-2.7V623.8C286.6,617.5,289.6,614,296.1,610.8Z"/><path class="cls-6" d="M380.9,557l-80.5-46.5c-2.1-1.3-2.9-1.4-4.8-.2L203,563.8c-2.9,1.8-1.9,3,.1,4.3l75.1,43.3c7.5,4.2,11.8,3.8,18-.5L381,562C383.3,560.7,383.9,558.8,380.9,557Z"/><polygon class="cls-12" points="294.3 620.7 377.6 572.6 377.6 598.8 294.3 646.9 294.3 620.7"/><polygon class="cls-12" points="294.3 655.7 377.6 607.5 377.6 668.7 294.3 716.8 294.3 655.7"/><path class="cls-9" d="M294.3,739.1a4,4,0,0,0,1.9-.7l3.8-2.2c1.4-.7,1.9-1.5,1.8-3.5V721.3l-7.5,3.2v14.6Z"/><path class="cls-9" d="M370.1,694.4a7.67,7.67,0,0,0,1.7-.5l4.3-2.5c1.4-.8,1.5-1.4,1.5-3.4V677.9l-7.5,2.9Z"/><path class="cls-12" d="M320.1,611.3c0,1.2,3.6.1,8.1-2.5l14.1-8.2c4.5-2.6,8.1-5.6,8.1-6.8v-2.2l-30.3,17.5v2.2Z"/><polygon class="cls-12" points="377.6 668.7 325 637.9 294.3 655.7 294.3 716.8 377.6 668.7"/><g class="cls-34"><path class="cls-14" d="M822.8,187.8c6.1,3.5,6.1,9.3,0,12.8s-16.1,3.5-22.2,0-6.1-9.3,0-12.8S816.7,184.3,822.8,187.8Z"/></g><path class="cls-35" d="M813.6,131.4c-1.9,1.1-2.8.9-3.3.1s-.2-1.7,1.7-2.9c3.5-2.1,6-1.7,6-1.7S817.2,129.3,813.6,131.4Z"/><path class="cls-35" d="M813.5,146c-1.5,1.7-2.4,1.8-3.1,1.2s-.8-1.5.7-3.3c2.7-3.1,5.1-3.6,5.1-3.6S816.2,142.8,813.5,146Z"/><path class="cls-35" d="M812.6,184.1h-.4a59.47,59.47,0,0,0-1.7-16.3A83.18,83.18,0,0,0,792.2,132l.3-.3a83.2,83.2,0,0,1,18.4,35.9A57.19,57.19,0,0,1,812.6,184.1Z"/><path class="cls-35" d="M803.8,148.5l-.4-.2c8.3-13.1,3.3-28.9,3.2-29.1l.4-.1C807.2,119.2,812.2,135.3,803.8,148.5Z"/><path class="cls-35" d="M797.5,141.6a14.6,14.6,0,0,1-7.6-2.2l.2-.3a14.38,14.38,0,0,0,9.3,2l.1.4C798.8,141.5,798.1,141.6,797.5,141.6Z"/><path class="cls-35" d="M811.9,174.4c-8.7-1-15.7-5.3-20.9-12.7a5.92,5.92,0,0,0-.4-.6h0l.1-.4c.1,0,.2.1.6.7A28.28,28.28,0,0,0,811.9,174Z"/><path class="cls-35" d="M799.6,169.8l-.4-.1c1.5-5.6-2.2-13.8-2.2-13.9l.4-.2a28.42,28.42,0,0,1,1.7,4.9C799.8,163.1,800.4,166.8,799.6,169.8Z"/><path class="cls-35" d="M791.9,129.6c2.2,2,2.4,3.2,1.8,3.8s-1.7.6-4-1.5c-4.1-3.7-5-6.7-5-6.7S787.8,125.8,791.9,129.6Z"/><path class="cls-35" d="M791,138c2.7,1.3,3.3,2.3,2.9,3.1s-1.5,1.1-4.2-.2c-5-2.3-6.7-4.9-6.7-4.9S786,135.7,791,138Z"/><path class="cls-35" d="M798.3,154.4c1,2,.7,2.9-.1,3.3s-1.7.1-2.7-1.9c-1.9-3.7-1.3-6.2-1.3-6.2S796.4,150.7,798.3,154.4Z"/><path class="cls-35" d="M801.8,134.8c.5,2.2,0,3-.9,3.2s-1.7-.3-2.2-2.5c-.9-4,.2-6.3.2-6.3S800.8,130.7,801.8,134.8Z"/><path class="cls-35" d="M805.2,167.6c-.1,2.3-.9,2.9-1.7,2.8s-1.5-.8-1.4-3c.2-4.1,1.9-6,1.9-6S805.4,163.4,805.2,167.6Z"/><path class="cls-35" d="M792.9,161.3c1.4,1.7,1.3,2.7.6,3.3s-1.6.5-3.1-1.2c-2.6-3.2-2.6-5.7-2.6-5.7S790.3,158.1,792.9,161.3Z"/><path class="cls-35" d="M808,117.3c.7,3,.2,4-.6,4.2s-1.8-.5-2.5-3.5c-1.3-5.4-.3-8.4-.3-8.4S806.7,111.9,808,117.3Z"/><g class="cls-36"><path class="cls-37" d="M802.2,198.5c1.9-.2,4.1-.4,6.5-.8l1-.2c6.7-1.2,14.3-3.6,19.5-8.1l.1-.1h0l-.3-.2c-7.6,6.7-20.3,8.6-27.6,9.1h0Z"/><path class="cls-37" d="M818.9,198.9h0a59.11,59.11,0,0,1-10.3-1.2h0l.1-.3.9.2a60.06,60.06,0,0,0,10.3,1.1h0Z"/><path class="cls-37" d="M810,191.4c-3.6,2.7-3.5,2.3-13.4,4.4l-.3-.3,2.7-.6h0l1.3-.3h0c7.3-2,5.8-1,8.8-3.2Z"/><path class="cls-37" d="M803.8,191c-1.1,2.3-1.1,1.8-4.8,3.9h0l.2.3c.4-.2.7-.4,1.1-.6h0c3.2-2,3-1.3,4-3.5Z"/></g><path class="cls-27" d="M833.1,187.2a8,8,0,0,1-.8,1.6v.1h0a36.06,36.06,0,0,1-5.9,7.6,11.36,11.36,0,0,1-4.1,2.4h0c-.3.1-.7.2-1.1.3h0c-5.3,1.5-12.6,1.2-18.4-.5h0l-1-.3h0c-.5-.2-1-.3-1.4-.5a13.59,13.59,0,0,1-3.7-2.1l-.4-.3a11.47,11.47,0,0,1-3.9-8.3Z"/><path class="cls-38" d="M834.4,179.9v5.2c0,3.2-9.8,5.9-22,5.9s-22-2.6-22-5.9v-5.2c0-1.7,5.7-3,13.7-3.6,2.5-.2,5.3-.3,8.3-.3C824.6,176,834.4,177.8,834.4,179.9Z"/><path class="cls-39" d="M834.4,179.9a1.15,1.15,0,0,1-.6.9c-2.3,1.7-11,3-21.4,3-2.9,0-5.7-.1-8.2-.3-8.1-.6-13.7-2-13.7-3.6s5.7-3,13.7-3.6c2.5-.2,5.3-.3,8.3-.3C824.6,176,834.4,177.8,834.4,179.9Z"/><path class="cls-35" d="M813,183.4s-12-45-24.1-41.2,14.8,28.4,17.8,41.5Z"/><path class="cls-35" d="M811.3,181.4s-18.4-36.1-29.9-30.7,18.8,21.4,23.7,32.1Z"/><path class="cls-40" d="M807.7,182.2c-6.3-14.2-22.9-26.6-23.1-26.7l.3-.4c.2.1,16.9,12.6,23.3,26.9Z"/><path class="cls-41" d="M849.4,150.3c-.1.3-.2.5-.3.8a23.6,23.6,0,0,1-2.9,4.8,7.24,7.24,0,0,0-1.4,5.1v.2c.2,2.6,1,5.2.6,7.5,0,.2-.1.3-.1.5a5.55,5.55,0,0,1-3,3.2c-5.9,2.9-6.8,2.7-7.4,5.2,0,.2-.1.3-.1.5-.1.5-.2,1-.3,1.7a1.46,1.46,0,0,1-.7,1.3c-2,1.5-9.2,2.7-18,3h-3.4c-2.9,0-5.7-.1-8.2-.3a10.21,10.21,0,0,1,0-7.3,12,12,0,0,1,2.1-3.4c5.3-6,9.5-5,8.5-15.7v-.7c-1.2-11.4,14.2-6.5,18-10.3s6.4-8.2,13.3-6.5C851.1,141,851.2,145.7,849.4,150.3Z"/><g class="cls-42"><path class="cls-40" d="M848.3,141.1a143.74,143.74,0,0,0-14.6,14.6l-.4.5a120.51,120.51,0,0,0-12.6,17.4l-.2.4a56.23,56.23,0,0,0-4.7,9.9h-.5c.5-1.7,3.5-9.8,12.1-21.1.1-.1.2-.3.3-.4A142.43,142.43,0,0,1,848,140.9Z"/><path class="cls-40" d="M823.9,159.5c-6.3-.2-9.1-2.3-9.2-2.4l.3-.4s2.8,2,9,2.3Z"/><path class="cls-40" d="M827.7,162.8c-2.5-.9-4.6-3.6-6-7.7a29.6,29.6,0,0,1-1.3-5.9h.5c0,.1,1.2,11,7,13.2Z"/><path class="cls-40" d="M834.4,156.2h-1.2v-.5c.1,0,9.1.8,16.1-5.4l.3.3A23.77,23.77,0,0,1,834.4,156.2Z"/><path class="cls-40" d="M844.8,161.4a10.66,10.66,0,0,1-6.3-3,8.07,8.07,0,0,1-1.7-2.4l.4-.2s1.8,4.3,7.7,5.1Z"/><path class="cls-40" d="M832.2,178.1a19.91,19.91,0,0,1-11.9-4.3l.3-.3c.1.1,6.3,5.3,14.3,4l.1.4A13.68,13.68,0,0,1,832.2,178.1Z"/><path class="cls-40" d="M825.4,176.5l-.4-.2c1.4-2.2,4.6-5.2,12-6.7a48.14,48.14,0,0,1,8.4-1v.5C845.2,169,830,169.1,825.4,176.5Z"/></g><path class="cls-43" d="M802.5,198.8c1.9-.2,4.1-.4,6.5-.8l1-.2c6.7-1.2,14.3-3.6,19.5-8.1l.1-.1h0l-.3-.2c-7.6,6.7-20.3,8.6-27.6,9.1h0Z"/><path class="cls-43" d="M819.3,199.2h0A59.11,59.11,0,0,1,809,198h0l.1-.3.9.2a60.06,60.06,0,0,0,10.3,1.1h0Z"/><path class="cls-43" d="M810.4,191.7c-3.6,2.7-3.5,2.3-13.4,4.4l-.3-.3,2.7-.6h0l1.3-.3h0c7.3-2,5.8-1,8.8-3.2Z"/><path class="cls-43" d="M804.2,191.3c-1.1,2.3-1.1,1.8-4.8,3.9h0l.2.3c.4-.2.7-.4,1.1-.6h0c3.2-2,3-1.3,4-3.5Z"/><path class="cls-7" d="M893.2,506.8c-5.1,3.3-3.4,6.9,1.2,9.9s11.5,3.9,15,7,8.7,8.8,18.7,7.5,18-6.3,13-10.7-10-5.2-17.7-7.4-12.6-5.3-17.6-7.1C901.5,504.4,897.5,503.9,893.2,506.8Z"/><path class="cls-7" d="M956.8,511.5c4.3-3.5,10.9-3.4,17.2-1.4s9.9,5.5,15.9,6.8,12.9,2.2,15.4,8.6c2.1,5.4-4.8,11.3-12.1,10.3-6.3-.8-11.8-5.1-17.6-8.9s-12.4-5.8-16.8-8.2C955,516.7,953.1,514.6,956.8,511.5Z"/><path class="cls-10" d="M941,516.2c-5-4.4-10-5.3-17.7-7.4s-12.6-5.3-17.6-7.1c-4.3-1.6-8.2-2-12.6.7-2.3,1.6-3.3,3.2-3.1,4.8a27,27,0,0,0,.4,2.8c.3,1.8,1.9,3.4,4.3,5,4.7,2.9,11.5,3.9,15,7s8.7,8.8,18.7,7.5c8.2-1,15-4.5,14.5-8.1,0-.4-.3-2.3-.3-2.7A4.53,4.53,0,0,0,941,516.2Z"/><path class="cls-44" d="M893.1,502.5c-5.1,3.3-3.4,6.9,1.2,9.9s11.5,3.9,15,7,8.7,8.8,18.7,7.5,18-6.3,13-10.7-10-5.2-17.7-7.4-12.6-5.3-17.6-7.1C901.4,500.1,897.4,499.6,893.1,502.5Z"/><path class="cls-27" d="M932.5,519.8a1.43,1.43,0,0,1-1.1-.5,8.86,8.86,0,0,0-6.9-4c-5-.1-19.2,1.8-19.3,1.7h0a1.16,1.16,0,0,1-.3-2.3c.5-.1,14.5-1.9,19.6-1.8a10.86,10.86,0,0,1,8.8,5.1,1.13,1.13,0,0,1-.4,1.5h0C932.8,519.8,932.7,519.9,932.5,519.8Z"/><path class="cls-27" d="M931.1,518.1h0a1.27,1.27,0,0,1-1.3-1h0a7.5,7.5,0,0,1,0-1.5c0-1.5,0-3-1.1-4.1-1.5-1.4-4.8-2.2-9.7-2a1.1,1.1,0,1,1,0-2.2c5.7-.2,9.3.7,11.4,2.7,1.9,1.8,1.8,4.1,1.8,5.7v1.2C932.1,517.5,931.6,518.1,931.1,518.1Z"/><path class="cls-10" d="M1005.2,521.7c-2.5-6.4-9.3-7.3-15.4-8.6s-9.5-4.9-15.9-6.8-12.9-2.1-17.2,1.4c-1.5,1.3-2.1,2.4-2,3.3a22.82,22.82,0,0,1,.2,2.7c.2,1.4,1.7,2.6,4,3.8,4.5,2.4,11.1,4.4,16.8,8.2s11.3,8.1,17.6,8.9c6.6.9,12.9-3.8,12.4-8.8,0-.4-.2-2.3-.2-2.9A10.38,10.38,0,0,1,1005.2,521.7Z"/><path class="cls-44" d="M956.6,507.7c4.3-3.5,10.9-3.4,17.2-1.4s9.9,5.5,15.9,6.8,12.9,2.2,15.4,8.6c2.1,5.4-4.8,11.3-12.1,10.3-6.3-.8-11.8-5.1-17.6-8.9s-12.4-5.8-16.8-8.2C954.8,512.9,952.9,510.8,956.6,507.7Z"/><path class="cls-45" d="M994.4,526.5a1.13,1.13,0,0,1-1.1-.7c-.3-.7-3.1-4.5-9.5-5.1a91.51,91.51,0,0,0-11.7-.4,1.1,1.1,0,0,1-.2-2.2h0a96.25,96.25,0,0,1,12,.4c7.2.6,10.9,5,11.4,6.6a1.08,1.08,0,0,1-.7,1.4Z"/><path class="cls-27" d="M992.9,524.6h-.4a1.23,1.23,0,0,1-.8-1.4h0c0-.1,1.4-5.1.1-9.1-.9-2.7-7.2-1.8-9.4-1.3a1.13,1.13,0,0,1-1.3-.9,1.11,1.11,0,0,1,.8-1.3c1.1-.3,10.4-2.4,12,2.8,1.4,4.6,0,10.1-.1,10.3A.9.9,0,0,1,992.9,524.6Z"/><path class="cls-46" d="M470.9,135.8,398,180.5l.6,75.4,72.9-44.6Zm-5.1,72.6L404.2,246l-.4-62.8,61.6-37.6Z"/><polygon class="cls-19" points="466.9 204.6 408.3 240.5 407.9 181.1 466.5 145.4 466.9 204.6"/><polygon class="cls-26" points="470 206.2 466.9 204.6 466.5 145.4 469.5 143.5 470 206.2"/><polygon class="cls-26" points="475.1 133.7 472.1 132.1 399.1 176.8 402.2 178.3 475.1 133.7"/><polygon class="cls-26" points="399.1 176.8 402.2 178.3 402.8 253.7 399.7 252.2 399.1 176.8"/><path class="cls-47" d="M449.9,216.5c-2.4.7-5.6,3.8-8,4.5,0-1.7.7-5.9.6-7.5-.1-2.5-.3-4.9-.6-7.5a1.1,1.1,0,0,0-1-1.1c-4.2-1.1-7-3.9-9.5-7.1,2.8,1.7,5.8,3.4,9.4,3.5.3-1.6-1.3-5.5-4.5-12.2.7.7,1.3,1.4,2,2.1a20.28,20.28,0,0,1,1.8,2.3c.6.8,1.1,1.6,1.9,2.5,2.8-3.1,3.5-6.8,4-10.5a17.91,17.91,0,0,1,.7,6.1,16.12,16.12,0,0,1-2,7.1,1.85,1.85,0,0,0,0,1.9A75.94,75.94,0,0,1,449.9,216.5Z"/><path class="cls-47" d="M453.8,194.3a25.55,25.55,0,0,0-7.3,4.3,4.37,4.37,0,0,1,.9-3.1,8,8,0,0,1,4.2-3c2-.6,3.9-1.1,5.9-1.7.5,5-2.8,8.9-8.5,10.1.9-1.1,1.8-2,2.7-3.1s1.6-2.2,2.3-3.3Z"/><path class="cls-47" d="M450.8,172.5c2.9,3.2,2.4,8.2-1.1,11.2h0l.5-6.8-.4-.1a32.1,32.1,0,0,0-3.7,6.5,7.06,7.06,0,0,1-.6-2.4,9.17,9.17,0,0,1,1.4-3.9C448.1,175.5,449.5,174,450.8,172.5Z"/><path class="cls-47" d="M421.9,180.2c4.3-1.3,8.7.9,9.8,4.9.1.1,0,.3.1.4a34.87,34.87,0,0,0-3.1-1.8,25.32,25.32,0,0,0-3.3-1.2,16.36,16.36,0,0,0,4.7,5.7,4.67,4.67,0,0,1-4.6-1.5A14.38,14.38,0,0,1,421.9,180.2Z"/><path class="cls-47" d="M428.9,196l-6.4.2-.1.4a17.19,17.19,0,0,0,6.3,2.4c-2.3,2.2-6.5,1-10.2-2.9A7.21,7.21,0,0,1,428.9,196Z"/><path class="cls-47" d="M432.8,192.8a19.65,19.65,0,0,0,1.3,2.5c.5.8,1.1,1.6,1.6,2.3-2.7.4-5.3-3.4-5.2-7.4a6,6,0,0,1,6.9,5.4l-4.4-3.1Z"/><path class="cls-47" d="M422.6,205.4a6.74,6.74,0,0,1,8-3.9c.1,0,.2,0,.4.2l-5,2.4v.3a12.62,12.62,0,0,0,5.8-.4C430.7,207,426.4,206.8,422.6,205.4Z"/><path class="cls-47" d="M436.5,204.7l-3.9,4,.3.2c2-.2,3.6-1.3,5.4-2.2-.1,3-4.7,4.5-8.4,4.4C430,207.5,432.7,205.1,436.5,204.7Z"/><path class="cls-47" d="M453.1,185.4l-4.9,3.1c-.4-2.7,3.5-4.8,7.7-5.3.5,3.3-2,6.4-5.8,7.2,1.1-1.5,2.2-3,3.4-4.5Z"/><path class="cls-47" d="M440.5,184.6l-.5,5.7c-2.3-1.3-1.9-5.3.3-9.3a5.89,5.89,0,0,1,2.4,8.3l-1.7-5Z"/><path class="cls-47" d="M434.5,183.2c-2.5-.9-3-4.7-1.6-9a6,6,0,0,1,4.2,7.7l-2.7-4.6-.6.2Z"/><path class="cls-47" d="M442.6,178.9v-4.7l-.5-.1-2,4.6c-1.8-1.9.3-5.4,2.7-7.6A5.36,5.36,0,0,1,442.6,178.9Z"/><path class="cls-47" d="M417.8,188.3a4.66,4.66,0,0,1,6.8.9l-4.1-.4-.2.5,3.8,2.1C422.8,192.6,419.7,191.1,417.8,188.3Z"/><polygon class="cls-26" points="405.4 242.4 408.4 243.9 470 206.2 466.9 204.6 405.4 242.4"/><path class="cls-28" d="M475.1,133.7l-72.9,44.6.6,75.4,72.9-44.6ZM470,206.2l-61.6,37.6-.5-62.7,61.6-37.6Z"/><path class="cls-46" d="M368.9,196.9l-73.8,37.7,1,72.5,73.7-37.7ZM364,266.3l-62.3,31.8-.8-60.4,62.3-31.8Z"/><polygon class="cls-19" points="364.8 263.1 305.5 293.3 304.7 236.2 364 206 364.8 263.1"/><polygon class="cls-26" points="367.8 264.8 364.8 263.1 364 206 367 204.4 367.8 264.8"/><polygon class="cls-26" points="372.7 195.4 370.2 193.4 296.4 231.1 298.9 233.1 372.7 195.4"/><polygon class="cls-26" points="296.4 231.1 298.9 233.1 299.9 305.6 297.4 303.6 296.4 231.1"/><ellipse class="cls-47" cx="347.17" cy="228.89" rx="2.5" ry="2.9" transform="translate(-57.03 326.56) rotate(-46.98)"/><path class="cls-47" d="M316.1,289.2l1.9-31.9a1.32,1.32,0,0,1,1.6-1.2c.2,0,.3.1.5.2l30.3,15.8Z"/><path class="cls-47" d="M348.6,272.8l1-14.9c0-.4.3-.6.7-.6h.2l14.2,7.4Z"/><path class="cls-47" d="M318.9,244.5c-1.1.5-2.4,1-3.6,1.5a2.18,2.18,0,0,1-2.5-.9,1.58,1.58,0,0,1,.2-2.3c.3-.1.6-.3.9-.4s.4-.1.2-.5a2.83,2.83,0,0,1,1.5-3.9,3.52,3.52,0,0,1,3.2.8c.3.3.4.3.6,0a2.48,2.48,0,0,1,3.4.7h0a2.14,2.14,0,0,1-.2,3.2l-.1.1c-.1.1-.3.1-.4.2Z"/><polygon class="cls-26" points="302.5 294.9 305.5 296.6 367.8 264.8 364.8 263.1 302.5 294.9"/><path class="cls-28" d="M372.7,195.4l-73.8,37.7,1,72.5,73.7-37.7Zm-4.9,69.4-62.3,31.8-.8-60.4L367,204.4Z"/><path class="cls-47" d="M752.8,159.6c-.2.9-.4,1.8-.6,2.6a1.38,1.38,0,0,1-.3.4,3.34,3.34,0,0,0-2.2,3.1,3.28,3.28,0,0,0,3.5,3.1h.1a3.55,3.55,0,0,0,1-.2l5.1-1.5c.3-.1.5-.2.6.2a16.15,16.15,0,0,1,.1,12.4,14.93,14.93,0,0,1-4.2,5.8,12.81,12.81,0,0,0-1.1-2.4,6.63,6.63,0,0,0-9-2.4.53.53,0,0,1-.8-.1h0a8.28,8.28,0,0,0-5-2.7,7.59,7.59,0,0,0-7,3,7.37,7.37,0,0,1-.5.6c-.5-1.3-1.1-2.5-1.5-3.8a16,16,0,0,1,.4-9.9,1.14,1.14,0,0,1,.8-.7,5.78,5.78,0,0,0,1.4-.5,2.1,2.1,0,0,0,1-2.7c-.1-.2-.2-.3-.3-.5l-.2-.2A15.19,15.19,0,0,1,752.8,159.6Z"/><path class="cls-47" d="M732.2,187a7.52,7.52,0,0,1,4.2-8c2.6-1.2,5.9-.9,9,2.5a26,26,0,0,1,2.5-1,5.39,5.39,0,0,1,5,1.1,6.5,6.5,0,0,1,2.3,7.3,6.61,6.61,0,0,1-4.6,4l-15.4,4.5a5.84,5.84,0,0,1-7-2.7,5.12,5.12,0,0,1,2-7c.2-.1.3-.2.5-.2A13.14,13.14,0,0,0,732.2,187Z"/><path class="cls-47" d="M753,162.8a3.87,3.87,0,0,1,2.6-4.3c2-.8,3.4.1,4.7,1.4a5.36,5.36,0,0,1,1.1-.5,3.2,3.2,0,0,1,4.2,1.8,3.06,3.06,0,0,1-1.8,4.1c-.2.1-.3.1-.5.2-3,.9-6.1,1.8-9.2,2.6a2.83,2.83,0,0,1-3.6-1.8c-.1-.2-.1-.5-.2-.8a2.92,2.92,0,0,1,1.9-2.5A2.35,2.35,0,0,0,753,162.8Z"/><path class="cls-47" d="M727.8,165a2.3,2.3,0,0,1,1.6-2.4,1.92,1.92,0,0,1,2,.6.49.49,0,0,0,.7.1,1.79,1.79,0,0,1,2.3.7.1.1,0,0,0,.1.1,1.64,1.64,0,0,1-.7,2.2.37.37,0,0,1-.3.1l-5.1,1.5a1.51,1.51,0,0,1-1.8-.9,1.26,1.26,0,0,1,.8-1.7h0Z"/><path class="cls-48" d="M243,418,211.2,561.4c56.4,26.2,107,22.4,161.8-5.7L330.5,415.2Z"/><path class="cls-27" d="M309.1,543.4a4.68,4.68,0,0,0-.2-1.7c-1-6.5-6.7-13.6-10.6-15.9H276c-3.9,2.3-9.6,9.3-10.6,15.9a11,11,0,0,0-.2,1.8v.3c.2,3.1,2.3,6.1,6.4,8.5,8.6,5,22.5,5,31,0,4.1-2.4,6.2-5.4,6.4-8.5A.76.76,0,0,0,309.1,543.4Z"/><path class="cls-49" d="M276.6,525.4c-5.8,3.4-5.8,8.8,0,12.2s15.3,3.4,21.1,0,5.8-8.8,0-12.2S282.4,522.1,276.6,525.4Z"/><path class="cls-27" d="M290.2,418h-6.1V529.2h0a1.42,1.42,0,0,0,.9,1.4,4.66,4.66,0,0,0,4.3,0,1.42,1.42,0,0,0,.9-1.4h0V418Z"/><path class="cls-49" d="M270.6,375.8c9.2,5.3,24,5.3,33.2,0s9.2-13.9,0-19.1-24-5.3-33.2,0S261.4,370.5,270.6,375.8Z"/><path class="cls-27" d="M330.5,415.3h0l-20.4-52c2.9,9.5-8.6,16.5-24.4,16.5-12,0-24.2-7.4-21.4-16.5l-20.4,52h0c-2.9,8.1,1.1,16.9,12,23.2,17.3,10,45.3,10,62.5,0C329.4,432.3,333.4,423.5,330.5,415.3Z"/><path class="cls-49" d="M270.6,356.7a18,18,0,0,0-4,3.3,9.86,9.86,0,0,0-2.4,4.5,7.46,7.46,0,0,0,.5,4.9,12,12,0,0,0,3.1,4c5.4,4.3,12.5,5.9,19.4,5.9s14-1.5,19.4-5.9a12,12,0,0,0,3.1-4,7.53,7.53,0,0,0,.5-4.9,9.86,9.86,0,0,0-2.4-4.5,18,18,0,0,0-4-3.3,18.26,18.26,0,0,1,4.2,3.1,10.23,10.23,0,0,1,2.7,4.6,8.73,8.73,0,0,1-.4,5.3,13.13,13.13,0,0,1-3.1,4.3,23.55,23.55,0,0,1-9.4,4.9,37.5,37.5,0,0,1-21,0,23.55,23.55,0,0,1-9.4-4.9,15.09,15.09,0,0,1-3.2-4.3,8,8,0,0,1-.4-5.3,10.79,10.79,0,0,1,2.7-4.6A15.82,15.82,0,0,1,270.6,356.7Z"/><path class="cls-50" d="M287.2,376.4a30.24,30.24,0,0,1-14.4-3.4c-3.4-1.9-5.2-4.4-5.2-6.8s1.9-4.9,5.2-6.8a32.19,32.19,0,0,1,28.7,0c3.4,1.9,5.2,4.4,5.2,6.8s-1.8,4.9-5.2,6.8A27.49,27.49,0,0,1,287.2,376.4Z"/><path class="cls-27" d="M638,444.8c1.4-8.1,2.8-10.1-7.6-19.7l-41.9-38.8c-5.8-5.3-11.4-8.1-15.5-8h0c-10.4-.8-56.3,21.3-79.4,34.5S419.7,458.4,410,473c-3.2,4.8,55.2,71.6,65.4,69.8,22.9-4.1,66.6-24.8,89.5-38.8,37.6-22.9,60.1-42.6,68.4-51.1C637.4,448.9,637.7,446.5,638,444.8Z"/><path class="cls-49" d="M424.7,508.8l34,27.5c10.4,9.6,20.1,10.8,21.5,2.6s-5.8-22.6-16.2-32.2l-34-27.5c-10.4-9.6-20.1-10.8-21.5-2.6S414.3,499.2,424.7,508.8Z"/><ellipse class="cls-7" cx="318.92" cy="576.17" rx="5.4" ry="15.1" transform="translate(-262.81 884.82) rotate(-88.98)"/><path class="cls-10" d="M307,567c-1-7.9,3.4-17.4,9.8-21.4,3.1-1.9,6-2.2,8.4-1l1.4.7-.7,1.5a12.93,12.93,0,0,1,1.2,4.2c1,7.9-3.4,17.4-9.8,21.4a13.47,13.47,0,0,1-3.8,1.6l-.7,1.6-.7-.3C309.4,574,307.5,571.2,307,567Z"/><ellipse class="cls-27" cx="319.91" cy="560.39" rx="16.7" ry="10.6" transform="translate(-319.77 645.16) rotate(-67.83)"/><path class="cls-10" d="M308.9,567.8c-.9-7.7,3.4-17.1,9.6-21,3-1.9,5.9-2.1,8.3-1h0l7,3.6-.7,1.5a12.32,12.32,0,0,1,1.1,4.1c.9,7.7-3.4,17.1-9.6,21a10.73,10.73,0,0,1-3.8,1.5l-.7,1.5-6.4-3.2C311.2,574.6,309.4,571.8,308.9,567.8Z"/><path class="cls-51" d="M316.5,576.3l2.1.9-1.2,3.6c-.1.3-.6.4-1.2.1s-.9-.7-.8-1Z"/><path class="cls-51" d="M328.1,573.6l1.3-1.6,3.2,2.7c.3.2.2.8-.1,1.2s-.9.6-1.1.4Z"/><path class="cls-27" d="M313.9,570.4c-1-7.9,3.4-17.4,9.8-21.4,3.1-1.9,6-2.2,8.4-1l1.4.7-.7,1.5a12.93,12.93,0,0,1,1.2,4.2c1,7.9-3.4,17.4-9.8,21.4a13.47,13.47,0,0,1-3.8,1.6l-.7,1.6-.7-.3C316.3,577.3,314.5,574.5,313.9,570.4Z"/><ellipse class="cls-10" cx="326.89" cy="563.66" rx="16.7" ry="10.6" transform="translate(-318.45 653.66) rotate(-67.83)"/><ellipse class="cls-30" cx="326.89" cy="563.66" rx="14.2" ry="9" transform="translate(-318.45 653.66) rotate(-67.83)"/><path class="cls-52" d="M324.5,549.5a9.82,9.82,0,0,1,6.5-1.6,9.22,9.22,0,0,0-6.1,1.7c-6.4,4-10.7,13.5-9.8,21.4.6,5,3.3,8.1,6.7,8.7-3.7-.4-6.5-3.5-7.2-8.7C313.8,563,318.1,553.5,324.5,549.5Z"/><path class="cls-53" d="M327.7,575.7c5.4-3.4,9.2-11.5,8.3-18.3-.4-3.4-1.9-5.7-3.9-6.8,2.3,1,4,3.4,4.4,7,.8,6.7-2.9,14.9-8.3,18.3-2.7,1.7-5.3,1.9-7.4.8A7.44,7.44,0,0,0,327.7,575.7Z"/><path class="cls-54" d="M326.1,564.1c0,.4.3.5.6.3a1.23,1.23,0,0,0,.5-1c0-.4-.3-.5-.6-.3A1.39,1.39,0,0,0,326.1,564.1Z"/><path class="cls-55" d="M325.3,554.5h0a.48.48,0,0,0,.2-.6l-.1-1c0-.2-.2-.3-.3-.2h0a.48.48,0,0,0-.2.6l.1,1C325,554.5,325.2,554.6,325.3,554.5Z"/><path class="cls-55" d="M327.9,575.1h0a.48.48,0,0,0,.2-.6l-.1-1c0-.2-.2-.3-.3-.2h0a.48.48,0,0,0-.2.6l.1,1C327.6,575,327.7,575.2,327.9,575.1Z"/><path class="cls-55" d="M334.1,559.1h0c0,.2.2.3.3.2l1-.6a.76.76,0,0,0,.2-.5h0c0-.2-.2-.3-.3-.2l-1,.6A.76.76,0,0,0,334.1,559.1Z"/><path class="cls-55" d="M317.4,569.5h0c0,.2.2.3.3.2l1-.6a.76.76,0,0,0,.2-.5h0c0-.2-.2-.3-.3-.2l-1,.6A.76.76,0,0,0,317.4,569.5Z"/><path class="cls-55" d="M329.3,553.4h0c.1,0,.3-.2.4-.4l.3-1.3c.1-.2,0-.4-.2-.4h0c-.1,0-.3.2-.4.4l-.3,1.3C329.1,553.2,329.1,553.3,329.3,553.4Z"/><path class="cls-55" d="M323.1,576.4h0c.1,0,.3-.2.4-.4l.3-1.3c.1-.2,0-.4-.2-.4h0c-.1,0-.3.2-.4.4l-.3,1.3C322.9,576.2,323,576.4,323.1,576.4Z"/><path class="cls-55" d="M333.6,564.4h0c-.1.2,0,.4.2.4l.9.1c.1,0,.3-.2.4-.4h0c.1-.2,0-.4-.2-.4H334A.54.54,0,0,0,333.6,564.4Z"/><path class="cls-55" d="M317.9,563.1h0c-.1.2,0,.4.2.4l.9.1c.1,0,.3-.2.4-.4h0c.1-.2,0-.4-.2-.4l-.9-.1C318.2,562.7,318,562.9,317.9,563.1Z"/><path class="cls-55" d="M332.5,555.1h0a.25.25,0,0,0,.4-.1l.7-1.1a.45.45,0,0,0,0-.5h0a.25.25,0,0,0-.4.1l-.7,1.1A.45.45,0,0,0,332.5,555.1Z"/><path class="cls-55" d="M319.3,574.3h0a.25.25,0,0,0,.4-.1l.7-1.1a.45.45,0,0,0,0-.5h0a.25.25,0,0,0-.4.1l-.7,1.1A.45.45,0,0,0,319.3,574.3Z"/><path class="cls-55" d="M331.3,569.6h0a.45.45,0,0,0,0,.5l.6.7a.25.25,0,0,0,.4-.1h0a.45.45,0,0,0,0-.5l-.6-.7A.25.25,0,0,0,331.3,569.6Z"/><path class="cls-55" d="M320.8,556.9h0a.45.45,0,0,0,0,.5l.6.7a.25.25,0,0,0,.4-.1h0a.45.45,0,0,0,0-.5l-.6-.7C321.1,556.7,320.9,556.8,320.8,556.9Z"/><polygon class="cls-54" points="326.5 564.4 327 564.1 325.9 555.1 325.3 555.4 326.5 564.4"/><polygon class="cls-54" points="326.5 563.7 326.7 563.9 320.3 573.3 320.1 573 326.5 563.7"/><path class="cls-56" d="M326.4,564c0,.2.2.3.3.2s.3-.3.2-.5-.2-.3-.3-.2A.76.76,0,0,0,326.4,564Z"/><polygon class="cls-56" points="324.3 562.9 324.6 562.4 325.9 563.1 325.8 563.2 334 567.6 333.9 567.8 325.7 563.5 325.6 563.6 324.3 562.9"/><path class="cls-32" d="M307.6,549.1c2.6-3.1,6.9-3.7,9.6-1.4.1.1.3.2.4.3,2.7,2.3,2.4,6.1-.2,9.2s-6.4,4.2-9.1,1.9c-.1-.1-.3-.2-.4-.3C305.1,556.6,305,552.2,307.6,549.1Z"/><path class="cls-32" d="M329.5,538.9c4.2,1.2,7.1,4.9,6.6,8.4-.5,2-4.1,1.6-8.3.4s-7.4-2.8-7.1-4.9C321.4,539.4,325.3,537.7,329.5,538.9Z"/><path class="cls-57" d="M330,546.6c2.2.6,3.9.3,4-.7s-1.3-2.1-3.5-2.8-4.1-.3-4.3.6S327.8,546,330,546.6Z"/><path class="cls-53" d="M307.7,548.8h0a1.08,1.08,0,0,1,1.5-.1,6,6,0,0,0,.8.7c.3.2.2.8-.1,1.2s-.9.6-1.1.4a6,6,0,0,1-.8-.7A1.12,1.12,0,0,1,307.7,548.8Z"/><path class="cls-53" d="M330,537.7h0a1.15,1.15,0,0,1,.9,1.2,6.17,6.17,0,0,0-.1.9c0,.3-.5.2-1.1.1s-1-.4-.9-.6a3.14,3.14,0,0,0,.1-.9C328.9,537.8,329.4,537.5,330,537.7Z"/><path class="cls-57" d="M316.8,556.7c1.7-2,1.7-4.5.2-5.8s-3.9-.9-5.6,1.1-1.9,4.7-.4,6S315.1,558.7,316.8,556.7Z"/><ellipse class="cls-54" cx="323.56" cy="547.41" rx="0.6" ry="1" transform="translate(-242.9 836.33) rotate(-86.44)"/><path class="cls-51" d="M322.5,546.1h1.7l.2,1.5h0c0,.3-.3.5-.8.5s-.9-.2-.9-.5h0Z"/><path class="cls-58" d="M322.4,545.4h1.7l.2,1.2h0c0,.2-.3.4-.8.4s-.9-.2-.9-.4h0Z"/><path class="cls-51" d="M322,545.6h2.6l.1.5h0c.1.4-.5.8-1.2.8s-1.3-.3-1.4-.8h0Z"/><path class="cls-53" d="M324.6,545.6c.1.4-.5.8-1.2.8s-1.3-.3-1.4-.8.5-.8,1.2-.8A1.44,1.44,0,0,1,324.6,545.6Z"/><path class="cls-59" d="M323.4,546.3c.7,0,1.3-.3,1.2-.7h0c.1.4-.5.8-1.2.7s-1.3-.3-1.4-.7h0C322.1,546,322.7,546.3,323.4,546.3Z"/><g class="cls-60"><path class="cls-17" d="M280.3,722.8l-50.2-29v6.8a3,3,0,0,0,1.5,2.6l48.7,28.1c2.2,1.3,3.9.4,3.9-2A8.65,8.65,0,0,0,280.3,722.8Z"/><path class="cls-19" d="M336,684.6v6.8a3,3,0,0,1-1.5,2.6l-48.7,28.1a3,3,0,0,1-2.9.3l-51.7-29.9a2.51,2.51,0,0,1-1-2.3,8.48,8.48,0,0,1,3.9-6.5l50.2-29Z"/><path class="cls-21" d="M230,674.7v6.8a3,3,0,0,0,1.5,2.6l48.7,28.1a3,3,0,0,0,2.9.3l51.7-29.9a2.51,2.51,0,0,0,1-2.3,8.48,8.48,0,0,0-3.9-6.5l-50.2-29Z"/><path class="cls-23" d="M278,705.3a2.85,2.85,0,0,1,1.3,2.2c0,.8-.6,1.1-1.3.7l-48-27.7v-2.8Z"/></g><path class="cls-12" d="M325,637.9l-30.7,17.8Z"/><ellipse class="cls-4" cx="887.2" cy="588.5" rx="59.5" ry="32.8"/><path class="cls-7" d="M838.9,594.7a10.34,10.34,0,0,0,5.3,5,22.15,22.15,0,0,0,7.2,1.6,51.31,51.31,0,0,0,9.6,0c4.7-.4,9.4-1.5,14.1-2.1,3-.3,5.9-.5,8.9-.6a29,29,0,0,1,5.1,0c4.2.4,8.2,2.4,12.4,2.3a6.59,6.59,0,0,0,3.9-1.1c.6-.4,1.1-1,1.8-1.5,2.4-1.9,5.8-1.7,8.8-2.1a24,24,0,0,0,8.7-2.8,8.92,8.92,0,0,0,3.4-3,3.94,3.94,0,0,0,0-4.3,5.65,5.65,0,0,0-2.4-1.6c-10.3-4.5-21.9-4.7-33.1-4.7-7.8,0-15.7-.1-23.5-.1a107.89,107.89,0,0,0-16.1.8,41,41,0,0,0-7.7,1.8c-1.8.6-5.9,1.7-7,3.4-.6.9-.4,3.3-.4,4.4A12.7,12.7,0,0,0,838.9,594.7Z"/><path class="cls-27" d="M878.1,571.2c-2.9-1.7-5.6-4-8.4-5.8a24.08,24.08,0,0,0-10.6-4,17.76,17.76,0,0,0-11.1,2c-5,2.9-8,8.5-8.6,14.2a16.28,16.28,0,0,0,.4,6.6c1.4,5.2,6,9.1,11.1,10.6a35.57,35.57,0,0,0,8.6,1.1c13.9.7,28,1.5,41.7-.9a17,17,0,0,0,5.8-1.8,7.5,7.5,0,0,0,3.6-4.6,8.77,8.77,0,0,0-.5-3.9,14.79,14.79,0,0,0-6.1-7.2,31.17,31.17,0,0,0-8.9-3.5,22.68,22.68,0,0,0-8.2-.4C883.8,574,880.6,572.7,878.1,571.2Z"/><path class="cls-27" d="M942.3,568.2a45.86,45.86,0,0,0-11.7.3,3.29,3.29,0,0,0-2,.8c-.9.6-1.1,1.8-1.2,3a30.4,30.4,0,0,0,.5,9.5c.9,3.6,2.6,2.8,4.8.6A38.44,38.44,0,0,0,942.3,568.2Z"/><path class="cls-27" d="M900.7,544.2a39.12,39.12,0,0,1,3.3,11.2,3.24,3.24,0,0,1-2.6,4.1,32.16,32.16,0,0,1-9.2,2.5c-3.8.3-3.4-1.5-2.1-4.4A41.7,41.7,0,0,1,900.7,544.2Z"/><path class="cls-61" d="M889.1,591.6a26.73,26.73,0,0,1-9.1-2.8c-2.8-1.6-7-9-4.3-15.5,2.6-6.3,7.4-8.3,8.8-8.6,7.3-1.6,12.4,4.4,19.5,6.1,3.6.8,7.4,2.3,9.6,5.2a15.44,15.44,0,0,1,1.9,4.4,16.1,16.1,0,0,1,.6,6.9c-.4,2.1-1.1,2.8-3,3.4a43.83,43.83,0,0,1-15.2,1.9A87.77,87.77,0,0,1,889.1,591.6Z"/><path class="cls-27" d="M917.4,556.2c3.3.8,7.1,4,9.4,6.4a18.13,18.13,0,0,1,4.7,10.4,31.86,31.86,0,0,1-.9,11.5,10.79,10.79,0,0,1-1.7,4.3c-1.5,1.8-5.9,4.2-8.3,4.7-13.4,2.8-17.3,3-25.4-.2-4.9-1.9-10.7-6-15.9-15.2a12.22,12.22,0,0,1,.3-12.4,23.34,23.34,0,0,1,14.6-9.2C901.7,555.3,910,554.6,917.4,556.2Z"/><path class="cls-62" d="M907.3,575.7c.2.2.4.4.3.7a.55.55,0,0,1-.3.5,3.37,3.37,0,0,1-1.7.8,5.85,5.85,0,0,0-1.9.4,9.35,9.35,0,0,1-.7-2.2,3.4,3.4,0,0,1-.1-1,2.35,2.35,0,0,1,.5-1,1.49,1.49,0,0,1,1.9.4c.1.3.4.5.4.8A2.16,2.16,0,0,1,907.3,575.7Z"/><path class="cls-62" d="M898.3,579.6c.1-.1.1-.1.2,0a2.74,2.74,0,0,0,2.2.9,3.16,3.16,0,0,0,2.2-1.3l.1-.1V579a7.57,7.57,0,0,1,.9-1.8c.1-.1.4,0,.2.1s-.1.1-.1.2.1.1,0,.1a6.11,6.11,0,0,1-.7,1.4c-.1.4-.3.8-.4,1.3a1.7,1.7,0,0,0-.1.7,1.85,1.85,0,0,0,.2.7,9.13,9.13,0,0,0,.8,1.3,6.42,6.42,0,0,0,1.3,1c.1,0,.1.1.1.2s-.1.1-.2.1a5.19,5.19,0,0,1-2.2-2.2c-.1-.2-.2-.5-.3-.7a1.1,1.1,0,0,1,0-.8,2.2,2.2,0,0,0,.1-.8,1.47,1.47,0,0,1-.6.5,3,3,0,0,1-1.3.5,2,2,0,0,1-1.3-.2,3.07,3.07,0,0,1-1.3-.8Z"/><path class="cls-62" d="M911,579.5a3.29,3.29,0,0,0,2.5,1.6,5.25,5.25,0,0,0,3-.6,3.49,3.49,0,0,0,1.9-2.2,2.55,2.55,0,0,1-1,.7,6.11,6.11,0,0,1-4,.1,2.92,2.92,0,0,1-1.9-3.2c-.1.4-.7,1-.8,1.6A3.64,3.64,0,0,0,911,579.5Z"/><path class="cls-62" d="M895.1,569.2a3.61,3.61,0,0,0,2.2,2,5.46,5.46,0,0,0,3.1-.1,3,3,0,0,0,2.2-1.9,2.22,2.22,0,0,1-1.1.5,6.87,6.87,0,0,1-4-.5,3.09,3.09,0,0,1-1.4-3.5c-.1.4-.8.9-1,1.4A3.75,3.75,0,0,0,895.1,569.2Z"/><path class="cls-61" d="M926.3,563.5l.3-.9.2.2a21.73,21.73,0,0,1,2.3,3,23.94,23.94,0,0,1-3.9,3.9,19.58,19.58,0,0,1-4.6,3.1C923.6,570.5,925.1,567,926.3,563.5Z"/><path class="cls-61" d="M914.6,571.5c2.6-3.9,3.1-8.7,5.7-12.5a3.83,3.83,0,0,1,.8-1.1,33.92,33.92,0,0,1,4.2,3.3C920.7,563.2,918.7,568.6,914.6,571.5Z"/><path class="cls-61" d="M914.7,555.7a25.58,25.58,0,0,1,2.7.5,13.89,13.89,0,0,1,1.9.6l-.4.4a15.09,15.09,0,0,0-1.5,2.8,43.09,43.09,0,0,1-5.8,9.6,51.25,51.25,0,0,1,2.7-12.8A6.6,6.6,0,0,0,914.7,555.7Z"/><path class="cls-61" d="M908.2,556.1a9.44,9.44,0,0,0,.3-.9c1.1,0,2.1,0,3.2.1a34.48,34.48,0,0,0-4.3,9.1A19.63,19.63,0,0,1,908.2,556.1Z"/><path class="cls-63" d="M900.2,550.2c-.1-.2-.1-.5-.3-.6s-.6-.1-1,.1a6.12,6.12,0,0,0-1.5,1.7,39.73,39.73,0,0,0-3,5.8,5.85,5.85,0,0,1,1.3-.2c.4-.1,1-.1,1.4-.2l2.9-.3c.6-.1,1.2-.1,1.3-.8a6.08,6.08,0,0,0-.3-2.3C900.8,552.3,900.5,551.3,900.2,550.2Z"/><path class="cls-63" d="M938,572.1a50.4,50.4,0,0,0-7.8.3,16.55,16.55,0,0,1,0,9.1,25.91,25.91,0,0,0,3.9-4.2c.6-.9,1.4-1.7,2-2.6C936.3,574.5,937.7,572.1,938,572.1Z"/><path class="cls-61" d="M858.3,570.6a12.09,12.09,0,0,1,4.3,5.2,16.88,16.88,0,0,1,1.3,6.6,13.58,13.58,0,0,1-.3,2.9c-.5,2.1-1.9,4-2.9,6,2.3-1.5,3.6-4.3,4.5-7s1.8-5.9.9-8.7a9.89,9.89,0,0,0-5.6-5.9,19.29,19.29,0,0,0-7.8-2.1c-.9,0-3.1.7-3.4,1.8a1.8,1.8,0,0,0,1.2-.3,5.11,5.11,0,0,1,2.1-.3A14.12,14.12,0,0,1,858.3,570.6Z"/><path class="cls-27" d="M837.8,589a15.63,15.63,0,0,0,8.3,9c6.2,2.8,13.3,1.9,20,.8,11.1-1.7,22.9-3.4,33.4.6a4.22,4.22,0,0,0,1.2.3c1.6.1,2.8-1.8,2.5-3.4s-1.7-2.7-3-3.6a23.22,23.22,0,0,0-10.7-3,70.21,70.21,0,0,0-11.2.7c-3.9.5-7.7.9-11.6,1.3-4.4.5-8.7,1-13.1.4s-8.6-2.4-11.3-5.8a14.49,14.49,0,0,1-2.7-11.4c-.5,2.3-1.6,4.2-2.2,6.4A14.44,14.44,0,0,0,837.8,589Z"/><path class="cls-61" d="M900.2,592.7a16.57,16.57,0,0,0-4.3-1.9c.1.1.1.1.1.3a1.31,1.31,0,0,1-.3,1,14.94,14.94,0,0,0-1.7,5.3c0,.1,0,.3-.1.3a35.85,35.85,0,0,1,5.6,1.6,4.22,4.22,0,0,0,1.2.3c1.6.1,2.8-1.8,2.5-3.4A6,6,0,0,0,900.2,592.7Z"/><path class="cls-61" d="M843.3,587.5a10.63,10.63,0,0,1-.9-1.1,5.67,5.67,0,0,1-1.2-1.8,9.75,9.75,0,0,0-3.4,4.4,15.47,15.47,0,0,0,1.9,3.6,10.11,10.11,0,0,1,1.3-3A5.23,5.23,0,0,1,843.3,587.5Z"/><path class="cls-61" d="M858.4,598.6a13.27,13.27,0,0,1-.3-4,12.91,12.91,0,0,1,.5-2.1c-1.1,0-2.3,0-3.5-.1a11.74,11.74,0,0,0-.5,7.4,27.06,27.06,0,0,0,4-.1A4.25,4.25,0,0,0,858.4,598.6Z"/><path class="cls-61" d="M847,598.3a14.29,14.29,0,0,1,1.4-5.1,5.17,5.17,0,0,1,1.5-1.8,20.65,20.65,0,0,1-3.4-1.5,1.79,1.79,0,0,1-.5.7,14.24,14.24,0,0,0-2.5,5.8,13.5,13.5,0,0,0,2.6,1.5C846.4,598,846.7,598.2,847,598.3Z"/><path class="cls-61" d="M867.7,598.5c-.1-1.8-.2-3.7-.3-5.5a5.65,5.65,0,0,1,0-1.3c-.2,0-.5.1-.7.1-1.2.1-2.4.3-3.6.4a8.47,8.47,0,0,1,.1,3.2,9.66,9.66,0,0,0,.3,3.8c.9-.1,1.7-.3,2.5-.4A15.47,15.47,0,0,1,867.7,598.5Z"/><path class="cls-61" d="M887.4,597a19.22,19.22,0,0,1,0-2.4,5.38,5.38,0,0,1,2.7-4.1,2.39,2.39,0,0,1,1.4-.5,13.4,13.4,0,0,0-2-.1,44.22,44.22,0,0,0-6.3.2c.1.3.1.5.2.8a17.09,17.09,0,0,1-.3,3.1,17.13,17.13,0,0,0-.1,3.2A33.14,33.14,0,0,1,887.4,597Z"/><path class="cls-61" d="M879.7,594.6a10.28,10.28,0,0,1-.6-3.9c0-.1.1-.3.1-.4-.3,0-.5.1-.7.1-1.5.2-3.2.4-4.7.5a9.23,9.23,0,0,1,.3,2.9,20.81,20.81,0,0,0,.6,3.6c1.7-.2,3.6-.4,5.3-.5C879.9,596.2,879.9,595.5,879.7,594.6Z"/><path class="cls-19" d="M674,365.3a81.56,81.56,0,0,1,68.4-21.2c13.5,2.1,31.9,8.2,37.7,22,3,3.9,14.9,15.7,18.9,19.7,2.8,2.8,6.2,6.4,4.9,10.1-.9,2.7-4,4-6.7,4.7-12.1,3.2-25,1.2-37.1-2.2s-23.8-8.1-36.1-10.3c-20.1-3.6-40.8-.4-61-3.5C651.6,382.8,670,369.1,674,365.3Z"/><g id="Layer_1-2" data-name="Layer 1"><path class="cls-64" d="M732.1,528.5c-12.8,0-23.2-9.1-23.2-20.2,0-4.6,1.9-6.9,5.8-6.9a30.35,30.35,0,0,1,6.6,1.1,49.46,49.46,0,0,0,10.9,1.6,48.57,48.57,0,0,0,10.8-1.6,30.35,30.35,0,0,1,6.6-1.1c3.9,0,5.8,2.3,5.8,6.9C755.2,519.5,744.8,528.5,732.1,528.5Z"/><path class="cls-65" d="M749.5,502.9c2.7,0,4.3,1.2,4.3,5.5,0,10.4-9.7,18.8-21.7,18.8s-21.7-8.4-21.7-18.8c0-4.2,1.6-5.5,4.3-5.5,4,0,10.3,2.7,17.4,2.7s13.5-2.7,17.4-2.7m0-2.9h0a33,33,0,0,0-6.9,1.1,53.31,53.31,0,0,1-10.5,1.6,47.68,47.68,0,0,1-10.6-1.6,33,33,0,0,0-6.9-1.1c-6.2,0-7.2,5.2-7.2,8.3,0,11.9,11,21.6,24.6,21.6s24.6-9.7,24.6-21.6c0-3.1-.9-8.3-7.1-8.3Z"/><path class="cls-66" d="M732.1,528.5c-11.7,0-21.6-7.7-23-17.8a1.38,1.38,0,0,1,1.2-1.6h.2a1.85,1.85,0,0,1,.7.2c4.9,2.7,12.4,4.3,20.3,4.3,8.7,0,16.7-1.9,21.5-5a1.08,1.08,0,0,1,.8-.2,1.45,1.45,0,0,1,1.4,1.5v.1C754.3,520.3,744.2,528.5,732.1,528.5Z"/><path class="cls-65" d="M753.8,509.8c-.8,9.7-10.2,17.3-21.7,17.3-11.1,0-20.3-7.2-21.6-16.6,4.9,2.7,12.5,4.5,21,4.5,9.3,0,17.4-2.1,22.3-5.2m0-3a3,3,0,0,0-1.6.5c-4.6,3-12.3,4.8-20.7,4.8-7.7,0-14.8-1.5-19.6-4.1a3.26,3.26,0,0,0-1.4-.4,2.9,2.9,0,0,0-2.9,2.9v.4c1.5,10.9,12,19.1,24.4,19.1,12.8,0,23.6-8.8,24.5-20a2.83,2.83,0,0,0-2.6-3.1l-.1-.1Z"/><path class="cls-67" d="M843.1,461.1a138.26,138.26,0,0,0-20.3-60c-15.4-24.3-43.7-39.3-71.7-43.2l-5.2-.6c-27.7-2.5-57.7-.2-82.7,12.8a94.55,94.55,0,0,0-18,12.1c-9.1,7.8-18.1,16.1-24.3,25.9-9.6,15.2-14.8,32.9-16.9,50.7-2.1,17.4.1,35.5,7.4,51.5a74.17,74.17,0,0,0,25.1,30.6,97.11,97.11,0,0,0,32.2,14.7c-3.1,9.9-3.8,20.4.7,30.1,2.6,5.6,8.8,13.7,15.7,16a60.56,60.56,0,0,0,12.1.8,179.12,179.12,0,0,0,43.9-.1c4.8-.7,8-.8,11.6-1.6,12.3-7.1,19.5-26.9,15.7-41,21.9-6.8,43.7-18.8,58-37A79.54,79.54,0,0,0,842,489.1,105.24,105.24,0,0,0,843.1,461.1Z"/><path class="cls-67" d="M753.3,600.5a2.19,2.19,0,0,0-.5.3c-3.6.8-6.8.9-11.6,1.6a179.12,179.12,0,0,1-43.9.1,59.23,59.23,0,0,1-11.6-.7,21.16,21.16,0,0,1-.2-2.4,12.26,12.26,0,0,1,1.3-4.1c1.1-2.1,2.6-3.3,5-3,4.1.4,5.4,4.4,5.5,8.3a179.12,179.12,0,0,1,43.9-.1,10.45,10.45,0,0,1,0-2.5c.2-2.9,1.6-5.9,4.7-6.4,2.8-.5,5.3,1.7,6.4,4.2A15.19,15.19,0,0,1,753.3,600.5Z"/><g class="cls-68"><path class="cls-69" d="M839.3,471.7a92.55,92.55,0,0,1-9.1,23.2c-.9,1.6-1.8,3.2-2.7,4.7-1.1,1.9-2.3,3.7-3.5,5.4-6.5,9.2-16,17.4-25.3,23.7-.6.4-1.3.8-1.9,1.2a3.08,3.08,0,0,0-1.9.6c-2.3,1.6-4.6,3-7,4.4a189.54,189.54,0,0,1-25.3,9.9c-30.3,10-58.1,10-88.9,1-13.9-4.1-26.4-10-37.5-19.5-23.1-19.6-31.8-55.4-24-84.1.8-2.8-3.3-4.5-4.4-1.6-6.1,16.5-8,33.9-3.7,51.1,3.9,15.7,12.7,29.4,23.9,40.9,11.7,12,25.8,19,41.8,23.7a171.9,171.9,0,0,0,31.1,6.4,2.75,2.75,0,0,0,.8,1.5,47.75,47.75,0,0,0,6.8,6.6c-.1.1-.3.2-.4.4-3.6,4.1-9.9,6.3-15.2,4.9-3.1-.8-4.8,3.5-1.8,4.7a17,17,0,0,0,10.9.7c4.8,0,10.6-1,13.8-4.4a25,25,0,0,0,17.8-2.2,2.51,2.51,0,0,0-2-4.6c-4,1.4-9.1,2.9-13.2,1.5,2.5-14.4,30.2-10.2,39.6-11.2,16.5-1.8,32.6-6.9,46.1-16.8,23-16.8,35.9-43.9,39.5-71.7C843.7,469.5,839.9,469.3,839.3,471.7Z"/></g><g class="cls-70"><ellipse class="cls-65" cx="663.03" cy="447.21" rx="17.1" ry="19.9" transform="translate(160.95 1069.71) rotate(-85.11)"/></g><g class="cls-70"><ellipse class="cls-65" cx="784.49" cy="448.27" rx="16" ry="19.8" transform="translate(271 1191.71) rotate(-85.11)"/></g><path class="cls-65" d="M695.6,418.9c-14.1-23.5-43.9,6.2-22,19.5a15.86,15.86,0,0,0,18.3-1.8C697,432.3,699.1,424.7,695.6,418.9ZM672,426.1c-3.6-.3-3.1-5.9.5-5.6S675.6,426.4,672,426.1Z"/><path class="cls-65" d="M787.5,421.8c-2.8-6.3-9.3-11-17-9-13.4,3.5-16.8,21.1-4.7,28.4a15.84,15.84,0,0,0,18.3-1.8C789.5,434.7,790,427.6,787.5,421.8Zm-7,3.8c-3.6-.3-3.1-5.9.5-5.6s3.2,5.9-.5,5.6Z"/><path class="cls-65" d="M716.4,464.1a6.74,6.74,0,0,0,3.4,8.9c.1,0,.1.1.2.1,3.8,1.4,8-1.4,8.7-5.3l-3,.9c2.4,2.4,5.4,4.8,9,3.5s3.4-5.4,2.5-8.5a1.73,1.73,0,1,0-3.4.6c.4,1.3,1.4,4-.4,4.7-2,.7-3.9-1.3-5.1-2.5a1.63,1.63,0,0,0-2.4-.1,2.38,2.38,0,0,0-.6,1.1,3.27,3.27,0,0,1-4,2.4c-.1,0-.2-.1-.3-.1a3.43,3.43,0,0,1-1.4-4.6,1.7,1.7,0,0,0-1-2.2,1.85,1.85,0,0,0-2.2,1.1Z"/><path class="cls-71" d="M685.1,561.7c4.3,1.8,8.8,3.1,13.3,4.6,3.9,1.4,8.6,2.8,11.5,5.9,1.2,1.3,2.4,3.4.5,4.7-1.6,1.2-4,1.7-6,2.1a26.84,26.84,0,0,1-13.2-.6c-2.1-.6-3.3,2.6-1.2,3.2a30.18,30.18,0,0,0,12.3,1.1,26.51,26.51,0,0,0,6.2-1.4,12.27,12.27,0,0,0,4.8-2.5c2.9-3,.9-7.3-1.8-9.7-3-2.7-7-4.2-10.7-5.6-4.8-1.8-9.8-3.1-14.5-5-2.1-.8-3.2,2.4-1.2,3.2Z"/><circle class="cls-64" cx="781.2" cy="422.9" r="3.1"/><circle class="cls-64" cx="672.2" cy="423.3" r="3.1"/><path class="cls-67" d="M631.6,396.4c-4.2-6.6-5.5-18.1,4.7-18.8,3.7-.3,14.3,2,12.2,7.7-.6,1.6-2.2,2.6-3.7,3.4l-11.3,6.1"/><path class="cls-67" d="M819.1,400.1c4.2-6.6,5.5-18.1-4.7-18.8-3.7-.3-14.3,2-12.2,7.7.6,1.6,2.2,2.6,3.7,3.4l11.3,6.1"/><path class="cls-72" d="M753.3,600.5a2.19,2.19,0,0,0-.5.3c-3.6.8-6.8.9-11.6,1.6a179.12,179.12,0,0,1-43.9.1,59.23,59.23,0,0,1-11.6-.7,21.16,21.16,0,0,1-.2-2.4,12.26,12.26,0,0,1,1.3-4.1c1.1-2.1,2.6-3.3,5-3,4.1.4,5.4,4.4,5.5,8.3a179.12,179.12,0,0,1,43.9-.1,10.45,10.45,0,0,1,0-2.5c.2-2.9,1.6-5.9,4.7-6.4,2.8-.5,5.3,1.7,6.4,4.2A15.19,15.19,0,0,1,753.3,600.5Z"/></g><path class="cls-19" d="M847.3,478.5c-3.7,28.3-10.4,53.6-58.5,80.8-4.6,1.6-9.8,2.9-12.5,6.9-3.4,5.2-.4,12.2-2.8,18.3-4.8,10.3-9.8,14.7-22.2,17.6-21.7,5.9-45.7,4.2-68.2.5-11.7-1.7-16.4-11.5-18.2-17-1.9-5.3-2.2-10.6-3.7-16.6s-6.3-10.6-11.7-13.6-38-14.2-49.8-61.5c-7.4-36.2,10.3-81.6,31.2-98.3.4,3.2-41.4,54.6-11.8,105.8,26.6,49.1,93.1,22.3,101.5,46,7.7-12.9,29.7-15.8,42.9-18.8,18.5-4.2,40.2-5.9,54-20.9C830,494.1,835,475.1,835.3,457a116.21,116.21,0,0,0-3.2-28.2,119.87,119.87,0,0,0-4.7-15.8c-.9-2.4-4.2-14.3-6.6-15.1C831.4,404.6,851.2,440.5,847.3,478.5Z"/><path class="cls-73" d="M819.8,529.1a77.89,77.89,0,0,0,12.6-17.5c4.6-9.1,5.5-20,6.3-30.8a103.52,103.52,0,0,1-10.1,28.9,74.52,74.52,0,0,1-11.9,16.5,57.29,57.29,0,0,1-23.1,14.3C803.3,538.6,812.6,536.1,819.8,529.1Zm-197.6-1.2c7.6,7.5,19.8,12.3,30.9,13a60.15,60.15,0,0,1-27.6-16.2,79.52,79.52,0,0,1-20-36.9A74.39,74.39,0,0,0,622.2,527.9Z"/><path class="cls-73" d="M707.4,572.4c4.2,1.8,8.3,4,12.8,5s9.5.5,13.1-2.3a21.25,21.25,0,0,1-15-2.1,41,41,0,0,0-5.4-3,21,21,0,0,0-7.5-1.1c-2,0-4.7-.2-6.6.8A45.07,45.07,0,0,1,707.4,572.4Z"/><path class="cls-73" d="M662,572.5c-.2-1.2-.5-2.5-.8-3.8-1-4.1-4-8-7.7-10.8a24.19,24.19,0,0,1,3.9,2.1,13.66,13.66,0,0,1,2.3,2.5,26,26,0,0,0,6.8,6,54.82,54.82,0,0,0,8.5,4c2.7,1.1,5.5,2.1,8.2,3.2C679.6,574.5,665.7,571.5,662,572.5Z"/><path class="cls-73" d="M693.7,594.6c0-.2-.9.4-1,.4-1.3-.2-2.6-1-3.8-.2a7.8,7.8,0,0,0-2.4,3c-.4.8-.7,1.8-1.1,2.6a6.94,6.94,0,0,1-2.3,2.2,20.75,20.75,0,0,1-8-2.9c.4.1.9.2,1.4.3a10,10,0,0,0,7.7-2.8c2-1.8,3.6-4.5,6.6-4.3C691.9,593,693.4,593.6,693.7,594.6Z"/><path class="cls-73" d="M755.3,601c-.2-.1-.3-.3-.4-.4a6.07,6.07,0,0,1-2.5-3.3,12.22,12.22,0,0,0-2.7-3.3,5.48,5.48,0,0,0-4.6-1.1,4.87,4.87,0,0,1,1.1-.4,3.4,3.4,0,0,1,1-.1,5.26,5.26,0,0,1,1.8.4,7.61,7.61,0,0,1,2.6,1.8l1.2,1.2a7.1,7.1,0,0,0,1.4,1c1.3.8,2.6,1.4,3.9,2.1l1.2.6A30.26,30.26,0,0,1,755.3,601Z"/><path class="cls-73" d="M778.5,563.9a11.5,11.5,0,0,0-2.1,2.3c-2.2,3.4-1.9,7.5-2,11.7-8.7,2.7-18.5.3-26.5,4.9,1.8-2.5,7.5-5.7,11-6.5,4.2-.9,9.1-.9,12.1-4a23.71,23.71,0,0,0,2.8-4C774.7,567.1,776.6,564.2,778.5,563.9Z"/><path class="cls-67" d="M696.9,604.4h0a2.14,2.14,0,0,1-1.6,1.7,15.16,15.16,0,0,1-8.9-1.3,1.94,1.94,0,0,1-1-1.7V603a18.48,18.48,0,0,1,.1-2.4,11.31,11.31,0,0,1,1.7-3.9c1.3-2,2.9-3,5.3-2.5,4,.8,4.9,4.9,4.6,8.8"/><path class="cls-67" d="M741.1,601.7c-.3-4,.6-8.2,4.7-9,2.4-.5,4.1.5,5.4,2.6a11.8,11.8,0,0,1,1.7,4,18.48,18.48,0,0,1,.1,2.4v.1a1.94,1.94,0,0,1-1,1.7,15.72,15.72,0,0,1-9.1,1.3,1.91,1.91,0,0,1-1.6-1.7h0"/><path class="cls-7" d="M705.4,713.5a9.25,9.25,0,0,1-4.9-.8l-87.4-43.4a2.36,2.36,0,0,1-1.5-1.7c-.1-.8.8-2,2.2-2.9L659.9,634a13.37,13.37,0,0,1,6.4-2,9.25,9.25,0,0,1,4.9.8l87.4,43.4a2.36,2.36,0,0,1,1.5,1.7c.1.8-.8,2-2.2,2.9l-46.1,30.7A13,13,0,0,1,705.4,713.5Z"/><path class="cls-74" d="M699,710l-87.4-43.4a4,4,0,0,1-2.5-3l-.3-4.2c-.1-1.4,1.2,1,3.2-.3l46.1-30.7c3.7-2.5,9.5-3.1,12.9-1.3l87.4,43.4c1.1.6,1.8-2.2,2.2-1.3.1.3.3,4.2.3,4.4.1,1.5-.8,3.1-2.9,4.5l-46.1,30.4C708.3,711,702.4,711.7,699,710Z"/><path class="cls-75" d="M698.7,705.9l-87.4-43.4c-3.5-1.7-3.2-5.1.5-7.5l46.1-30.7c3.7-2.5,9.5-3.1,12.9-1.3l87.4,43.4c3.5,1.7,3.2,5.1-.5,7.5l-46.1,30.7C708,707,702.2,707.6,698.7,705.9Z"/><path class="cls-30" d="M704.3,705.1a9.25,9.25,0,0,1-4.9-.8L612,660.9a2.36,2.36,0,0,1-1.5-1.7c-.1-.8.8-2,2.2-2.9l46.1-30.7a13.37,13.37,0,0,1,6.4-2,9.25,9.25,0,0,1,4.9.8l87.4,43.4a2.36,2.36,0,0,1,1.5,1.7c.1.8-.8,2-2.2,2.9l-46.1,30.7A13,13,0,0,1,704.3,705.1Z"/><path class="cls-74" d="M702.2,694.1l-71-35.2c-1.4-.8-1.3-2.1.2-3.1l24.8-16.4a6.41,6.41,0,0,1,5.4-.6l71,35.2c1.4.8,1.3,2.1-.2,3.1l-24.8,16.4A6.48,6.48,0,0,1,702.2,694.1Z"/><path class="cls-30" d="M657.9,642.1l4.5,2.3a2,2,0,0,0,2-.1.55.55,0,0,0,.3-.8.78.78,0,0,0-.4-.4l-4.5-2.3a2.32,2.32,0,0,0-2,.1.55.55,0,0,0-.3.8C657.5,641.9,657.7,642,657.9,642.1Zm7.7,3.8,2.2,1a2.32,2.32,0,0,0,2-.1.68.68,0,0,0,.4-.8.78.78,0,0,0-.4-.4l-2.2-1.1a2.32,2.32,0,0,0-2,.1.68.68,0,0,0-.4.8c.1.4.2.5.4.5Zm5.4,2.7,2.2,1a2.32,2.32,0,0,0,2-.1.55.55,0,0,0,.3-.8.78.78,0,0,0-.4-.4l-2.2-1a2,2,0,0,0-2,.1.71.71,0,0,0-.3.8l.4.4Zm5.5,2.7,2.2,1a2,2,0,0,0,2-.1c.6-.4.5-.8-.1-1.1l-2.2-1a2,2,0,0,0-2,.1.71.71,0,0,0-.3.8,1.38,1.38,0,0,0,.4.3Zm5.3,2.7,2.2,1a2,2,0,0,0,2-.1.68.68,0,0,0,.4-.8.78.78,0,0,0-.4-.4l-2.2-1a2,2,0,0,0-2,.1.71.71,0,0,0-.3.8c.1.2.1.3.3.4Zm5.4,2.7,2.2,1a2,2,0,0,0,2-.1.55.55,0,0,0,.3-.8.78.78,0,0,0-.4-.4l-2.2-1a2,2,0,0,0-2,.1c-.4.3-.4.8.1,1.2Zm5.4,2.6,2.2,1a2,2,0,0,0,2-.1.68.68,0,0,0,.4-.8.78.78,0,0,0-.4-.4l-2.2-1a2.32,2.32,0,0,0-2,.1c-.6.4-.6.9,0,1.2ZM698,662l2.2,1a2.32,2.32,0,0,0,2-.1.68.68,0,0,0,.4-.8.78.78,0,0,0-.4-.4l-2.2-1a2.32,2.32,0,0,0-2,.1.71.71,0,0,0-.3.8c0,.2.2.3.3.4Zm5.4,2.7,2.2,1a2.32,2.32,0,0,0,2-.1.55.55,0,0,0,.3-.8.78.78,0,0,0-.4-.4l-2.2-1.1a2,2,0,0,0-2,.1.55.55,0,0,0-.3.8,2.18,2.18,0,0,0,.4.5Zm5.4,2.7,2.2,1a2,2,0,0,0,2-.1c.6-.4.5-.8-.1-1.1l-2.2-1a2,2,0,0,0-2,.1.71.71,0,0,0-.3.8,1.38,1.38,0,0,0,.4.3Zm5.4,2.6,2.2,1a2,2,0,0,0,2-.1c.6-.4.5-.8-.1-1.1l-2.2-1a2,2,0,0,0-2,.1.71.71,0,0,0-.3.8,1.38,1.38,0,0,0,.4.3Zm5.4,2.7,2.2,1a2,2,0,0,0,2-.1.55.55,0,0,0,.3-.8.78.78,0,0,0-.4-.4l-2.2-1a2,2,0,0,0-2,.1c-.5.4-.5.9.1,1.2Zm5.5,2.8,2.2,1a2.32,2.32,0,0,0,2-.1.68.68,0,0,0,.4-.8.78.78,0,0,0-.4-.4l-2.2-1.1a2.32,2.32,0,0,0-2,.1c-.3.2-.5.6-.3.8a.62.62,0,0,0,.3.5Zm-71.8-30.2,1.9.9a2.64,2.64,0,0,0,2.3-.1l1.7-1.1c.6-.4.6-.9-.1-1.3l-1.9-.9a2.36,2.36,0,0,0-2.3.2l-1.7,1.1c-.4.2-.5.7-.3.9.2,0,.3.1.4.3Zm9.6,3.4,1.7-1.1c.7-.4.6-.9-.1-1.3l-1.9-.9a2.36,2.36,0,0,0-2.3.2l-1.7,1.1c-.4.2-.6.6-.4.9a.66.66,0,0,0,.5.4l1.9.9A2.65,2.65,0,0,0,662.9,648.7Zm1.2,1.9,1.9.9a2.36,2.36,0,0,0,2.3-.2l1.7-1.1c.4-.2.6-.6.4-.9a.66.66,0,0,0-.5-.4L668,648a2.64,2.64,0,0,0-2.3.1l-1.7,1.1c-.6.4-.5,1,.1,1.4Zm5.4,2.6,1.9.9a2.36,2.36,0,0,0,2.3-.2l1.7-1.1c.4-.2.6-.6.4-.9a.66.66,0,0,0-.5-.4l-1.9-.9a2.36,2.36,0,0,0-2.3.2l-1.7,1.1a.7.7,0,0,0,.1,1.3Zm11.2,1-1.9-.9a2.36,2.36,0,0,0-2.3.2l-1.7,1.1c-.4.2-.6.6-.4.9a.66.66,0,0,0,.5.4l1.9.9a2.36,2.36,0,0,0,2.3-.2l1.7-1.1a.61.61,0,0,0,.3-.9c-.1-.2-.2-.4-.4-.4Zm5.4,2.7-1.9-.9a2.36,2.36,0,0,0-2.3.2l-1.7,1.1c-.4.2-.6.6-.4.9a.66.66,0,0,0,.5.4l1.9.9a2.36,2.36,0,0,0,2.3-.2l1.7-1.1c.6-.4.5-.9-.1-1.3Zm5.4,2.6-1.9-.9a2.36,2.36,0,0,0-2.3.2l-1.7,1.1c-.4.2-.6.6-.4.9a.66.66,0,0,0,.5.4l1.9.9a2.64,2.64,0,0,0,2.3-.1l1.7-1.1c.6-.4.5-1-.1-1.4Zm5.3,2.8-1.9-.9a2.36,2.36,0,0,0-2.3.2l-1.7,1.1c-.4.2-.6.6-.4.9a.66.66,0,0,0,.5.4l1.9.9a2.36,2.36,0,0,0,2.3-.2l1.7-1.1a.74.74,0,0,0,.4-.9,1,1,0,0,0-.5-.4Zm5.4,2.6-1.9-.9a2.64,2.64,0,0,0-2.3.1l-1.7,1.1c-.6.4-.6.9.1,1.3l1.9.9a2.36,2.36,0,0,0,2.3-.2l1.7-1.1a.74.74,0,0,0,.4-.9,1.07,1.07,0,0,0-.5-.3Zm5.5,2.7-1.9-.9a2.36,2.36,0,0,0-2.3.2l-1.7,1.1c-.6.4-.6.9.1,1.3l1.9.9a2.36,2.36,0,0,0,2.3-.2l1.7-1.1c.6-.4.6-1-.1-1.3Zm-.5,4.4,1.9.9a2.36,2.36,0,0,0,2.3-.2l1.7-1.1c.4-.2.6-.6.4-.9a.66.66,0,0,0-.5-.4l-1.9-.9a2.36,2.36,0,0,0-2.3.2l-1.7,1.1c-.4.2-.6.6-.4.9s.4.3.5.4Zm11.2.9-1.9-.9a2.36,2.36,0,0,0-2.3.2l-1.7,1.1c-.4.2-.6.6-.4.9a.66.66,0,0,0,.5.4l1.9.9a2.36,2.36,0,0,0,2.3-.2l1.7-1.1c.7-.3.6-.9-.1-1.3Zm8,3.9-4.2-2.1a2.36,2.36,0,0,0-2.3.2l-1.7,1.2c-.4.2-.6.6-.4.9a.66.66,0,0,0,.5.4l4.2,2.1a2.64,2.64,0,0,0,2.3-.1l1.7-1.1a.89.89,0,0,0-.1-1.5Zm-77.7-28.5,4.2,2.1a2.64,2.64,0,0,0,2.3-.1l1.7-1.1c.6-.4.6-.9-.1-1.3l-4.2-2.1a2.36,2.36,0,0,0-2.3.2l-1.7,1.1c-.4.2-.6.6-.4.9A2.19,2.19,0,0,0,648.7,648.3Zm7.9,3.9,1.9.9a2.64,2.64,0,0,0,2.3-.1l1.7-1.1c.7-.4.6-.9-.1-1.3l-1.9-.9a2.36,2.36,0,0,0-2.3.2l-1.7,1.1c-.4.2-.6.6-.4.9a1.41,1.41,0,0,0,.5.3Zm7.1,3.6a2.36,2.36,0,0,0,2.3-.2l1.7-1.1c.7-.4.6-1-.1-1.3l-1.9-.9a2.64,2.64,0,0,0-2.3.1l-1.7,1.1c-.6.4-.6.9.1,1.3Zm5.5,2.6a2.36,2.36,0,0,0,2.3-.2l1.7-1.1c.4-.2.6-.6.4-.9a.66.66,0,0,0-.5-.4l-1.9-.9a2.36,2.36,0,0,0-2.3.2l-1.7,1.2c-.7.4-.6.9.1,1.3Zm5.1-.7-1.7,1.1c-.4.2-.6.6-.4.9a.66.66,0,0,0,.5.4l1.9.9a2.36,2.36,0,0,0,2.3-.2l1.7-1.1c.4-.2.6-.6.4-.9a.66.66,0,0,0-.5-.4l-1.9-.9a3.08,3.08,0,0,0-2.3.2Zm5.6,2.6-1.9,1.3c-.6.4-.5.9.1,1.2l2.1,1a2.24,2.24,0,0,0,2.1-.1l1.9-1.3c.6-.4.5-.9-.1-1.2l-2.1-1a2.55,2.55,0,0,0-2.1.1Zm5.3,2.7-1.9,1.3c-.6.4-.5.9.1,1.2l2.1,1a2.24,2.24,0,0,0,2.1-.1l1.9-1.3a.68.68,0,0,0,.4-.8,1,1,0,0,0-.5-.4l-2.1-1a2.24,2.24,0,0,0-2.1.1Zm5.4,2.7-1.9,1.3a.68.68,0,0,0-.4.8,1,1,0,0,0,.5.4l2.1,1a2.24,2.24,0,0,0,2.1-.1l1.9-1.3a.68.68,0,0,0,.4-.8.7.7,0,0,0-.5-.4l-2.1-1a2.24,2.24,0,0,0-2.1.1Zm5.4,2.7-1.9,1.3a.68.68,0,0,0-.4.8.7.7,0,0,0,.5.4l2.1,1a2.24,2.24,0,0,0,2.1-.1l1.9-1.3a.68.68,0,0,0,.4-.8,1,1,0,0,0-.5-.4l-2.1-1a2,2,0,0,0-2.1.1Zm5.4,2.6-1.9,1.3c-.6.4-.5.9.1,1.2l2.1,1a2.24,2.24,0,0,0,2.1-.1l2-1.3c.6-.4.5-.9-.1-1.2l-2.2-1a2.55,2.55,0,0,0-2.1.1Zm7.7,6.1,1.9-1.3a.68.68,0,0,0,.4-.8.7.7,0,0,0-.5-.4l-2.1-1a2.24,2.24,0,0,0-2.1.1l-1.9,1.3c-.6.4-.5.9.1,1.2l2.1,1a2,2,0,0,0,2.1-.1Zm5.4,2.7,1.9-1.3c.6-.4.5-.9-.1-1.2l-2.1-1a2.24,2.24,0,0,0-2.1.1l-2,1.3c-.6.4-.5.9.1,1.2l2.1,1A2.16,2.16,0,0,0,714.5,679.8Zm7.3.3-2.1-1a2.24,2.24,0,0,0-2.1.1l-2,1.2a.68.68,0,0,0-.4.8,1,1,0,0,0,.5.4l2.1,1a2.24,2.24,0,0,0,2.1-.1l1.9-1.3a.68.68,0,0,0,.4-.8c0-.2-.2-.3-.4-.3Zm-77.9-28.8,6.8,3.4a2.24,2.24,0,0,0,2.1-.1l1.9-1.3a.68.68,0,0,0,.4-.8,1,1,0,0,0-.5-.4l-6.8-3.4a2.24,2.24,0,0,0-2.1.1l-1.9,1.3c-.5.4-.5.9.1,1.2Zm10.1,5,2.1,1a2.24,2.24,0,0,0,2.1-.1l1.9-1.3c.6-.4.5-.9-.1-1.2l-2.1-1a2.24,2.24,0,0,0-2.1.1l-1.9,1.3c-.3.2-.5.6-.3.8a.78.78,0,0,0,.4.4Zm5.4,2.8,2.1,1a2.24,2.24,0,0,0,2.1-.1l1.9-1.3c.6-.4.5-.9-.1-1.2l-2.1-1a2.24,2.24,0,0,0-2.1.1l-2,1.3c-.4.2-.4.8.2,1.2Zm5.4,2.6,2.1,1a2.24,2.24,0,0,0,2.1-.1l2-1.3c.6-.4.5-.9-.1-1.2l-2.1-1a2.24,2.24,0,0,0-2.1.1l-1.9,1.3q-.9.6,0,1.2Zm9.6,3.6,1.9-1.3a.68.68,0,0,0,.4-.8,1,1,0,0,0-.5-.4l-2.1-1a2.24,2.24,0,0,0-2.1.1l-1.9,1.3c-.6.4-.5.9.1,1.2l2.2,1a2.36,2.36,0,0,0,2-.1Zm5.4,2.6,1.9-1.3a.68.68,0,0,0,.4-.8,1,1,0,0,0-.5-.4l-2.1-1a2.24,2.24,0,0,0-2.1.1l-1.9,1.3a.68.68,0,0,0-.4.8,1,1,0,0,0,.5.4l2.1,1a2,2,0,0,0,2.1-.1Zm5.3,2.8,1.9-1.3a.68.68,0,0,0,.4-.8.7.7,0,0,0-.5-.4l-2.1-1a2.24,2.24,0,0,0-2.1.1l-1.9,1.3a.68.68,0,0,0-.4.8,1,1,0,0,0,.5.4l2.1,1a3.72,3.72,0,0,0,2.1-.1Zm5.4,2.6,1.9-1.3c.6-.4.5-.9-.1-1.2l-2.1-1a2.24,2.24,0,0,0-2.1.1l-2,1.3a.68.68,0,0,0-.4.8,1,1,0,0,0,.5.4l2.1,1a2.15,2.15,0,0,0,2.2-.1Zm5.4,2.7,2-1.3c.6-.4.5-.9-.1-1.2l-2.1-1a2.24,2.24,0,0,0-2.1.1l-1.9,1.3c-.6.4-.5.9.1,1.2l2.1,1a2.36,2.36,0,0,0,2-.1Zm5.4,2.7,1.9-1.3a.68.68,0,0,0,.4-.8.7.7,0,0,0-.5-.4l-2.1-1.1a2.24,2.24,0,0,0-2.1.1l-1.9,1.3c-.6.4-.5.9.1,1.2l2.1,1a2.22,2.22,0,0,0,2.1,0Zm1.2,1.8,2.1,1a2.24,2.24,0,0,0,2.1-.1l1.9-1.3a.68.68,0,0,0,.4-.8,1,1,0,0,0-.5-.4l-2.1-1a2.24,2.24,0,0,0-2.1.1l-1.9,1.3c-.5.2-.5.8.1,1.2Zm14.7,2.6-5.3-2.6a2.24,2.24,0,0,0-2.1.1l-1.9,1.3a.68.68,0,0,0-.4.8,1,1,0,0,0,.5.4l5.3,2.6a2.24,2.24,0,0,0,2.1-.1l1.9-1.3a.66.66,0,0,0,.5-.8c-.2-.2-.4-.4-.6-.4Zm-77.9-28.5,9.6,4.7a2.57,2.57,0,0,0,2.4-.2L653,658c.7-.4.6-1-.1-1.3l-9.6-4.7a2.57,2.57,0,0,0-2.4.2l-1.6,1c-.7.4-.7,1,0,1.4Zm13.2,6.5,1.8.9a2.32,2.32,0,0,0,2.4-.2l1.7-1.1c.4-.2.6-.6.4-.9a.66.66,0,0,0-.5-.4l-1.8-.9a2.57,2.57,0,0,0-2.4.2l-1.7,1.1c-.6.3-.6,1,.1,1.3Zm5.5,2.7,1.8.9a2.32,2.32,0,0,0,2.4-.2l1.7-1.1c.4-.2.6-.6.4-.9a.66.66,0,0,0-.5-.4l-1.8-.9a2.57,2.57,0,0,0-2.4.2l-1.7,1.1c-.7.3-.7.9.1,1.3Zm5.3,2.7,1.8.9a2.57,2.57,0,0,0,2.4-.2l1.7-1.1c.4-.2.6-.6.4-.9a.66.66,0,0,0-.5-.4l-1.8-.9a2.57,2.57,0,0,0-2.4.2l-1.7,1.1c-.4.2-.6.6-.4.9.2.1.3.3.5.4Zm5.4,2.7,1.8.9a2.57,2.57,0,0,0,2.4-.2l1.7-1.1c.7-.4.6-1-.1-1.3l-1.8-.9a2.57,2.57,0,0,0-2.4.2l-1.7,1.1a.74.74,0,0,0-.4.9,2.18,2.18,0,0,0,.5.4Zm5.4,2.6,1.8.9a2.57,2.57,0,0,0,2.4-.2l1.7-1.1c.7-.4.6-1-.1-1.3l-1.8-.9a2.32,2.32,0,0,0-2.4.2l-1.7,1.1c-.4.2-.5.7-.3.9a.78.78,0,0,0,.4.4Zm5.4,2.7,1.8.9a2.57,2.57,0,0,0,2.4-.2l1.7-1.1c.4-.2.6-.6.4-.9a.66.66,0,0,0-.5-.4l-1.8-.9a2.32,2.32,0,0,0-2.4.2l-1.7,1.1c-.4.2-.5.7-.3.9a.78.78,0,0,0,.4.4Zm5.4,2.7,1.8.9a2.32,2.32,0,0,0,2.4-.2l1.7-1.1c.4-.2.6-.6.4-.9a.66.66,0,0,0-.5-.4l-1.8-.9a2.57,2.57,0,0,0-2.4.2l-1.7,1.1c-.7.3-.6.9.1,1.3Zm5.3,2.6,1.8.9a2.32,2.32,0,0,0,2.4-.2l1.7-1.1c.4-.2.6-.6.4-.9a.66.66,0,0,0-.5-.4l-1.8-.9a2.57,2.57,0,0,0-2.4.2l-1.7,1.1a.74.74,0,0,0-.4.9A1.76,1.76,0,0,0,690.2,679.8Zm5.4,2.7,1.8.9a2.57,2.57,0,0,0,2.4-.2l1.7-1.1a.63.63,0,0,0,.4-.9,1.21,1.21,0,0,0-.5-.5l-1.8-.9a2.57,2.57,0,0,0-2.4.2l-1.7,1.1a.8.8,0,0,0,.1,1.4Zm5.4,2.7,1.8.9a2.57,2.57,0,0,0,2.4-.2l1.7-1.1c.7-.4.6-1-.1-1.3l-1.8-.9a2.57,2.57,0,0,0-2.4.2l-1.7,1.1a.76.76,0,0,0-.5.9c.2.1.4.3.6.4Zm11.3,1-1.8-.9a2.65,2.65,0,0,0-2.3.2l-1.7,1.1c-.4.2-.6.6-.4.9a.66.66,0,0,0,.5.4l1.8.9a2.57,2.57,0,0,0,2.4-.2l1.7-1.1a.77.77,0,0,0,.7-.8c0-.4-.5-.6-.9-.5Zm-69.5-29.1-4.2-2.1a2.57,2.57,0,0,0-2.4.2l-1.6,1c-.4.2-.6.6-.4.9a1.21,1.21,0,0,0,.5.5l4.2,2.1a2.57,2.57,0,0,0,2.4-.2l1.7-1.1a.61.61,0,0,0,.3-.9,1,1,0,0,0-.5-.4Zm5.4,2.7-1.8-.9a2.57,2.57,0,0,0-2.4.2l-1.7,1.1c-.4.2-.6.6-.4.9a.66.66,0,0,0,.5.4l1.8.9a2.57,2.57,0,0,0,2.4-.2l1.7-1.1c.4-.2.6-.6.4-.9a.66.66,0,0,0-.5-.4Zm5.4,2.7-1.8-.9a2.57,2.57,0,0,0-2.4.2l-1.7,1.1c-.4.2-.6.6-.4.9a.66.66,0,0,0,.5.4l1.8.9a2.57,2.57,0,0,0,2.4-.2l1.7-1.1c.6-.4.6-1-.1-1.3Zm37.8,18.7-34.2-17a2.32,2.32,0,0,0-2.4.2l-1.7,1.1c-.4.2-.6.6-.4.9a.66.66,0,0,0,.5.4l34.2,17a2.57,2.57,0,0,0,2.4-.2l1.7-1.1c.6-.3.5-1-.1-1.3Zm5.3,2.7-1.8-.9a2.32,2.32,0,0,0-2.4.2l-1.7,1.1c-.4.2-.6.6-.4.9a.66.66,0,0,0,.5.4l1.8.9a2.57,2.57,0,0,0,2.4-.2l1.7-1.1a.76.76,0,0,0,.5-.9,1.54,1.54,0,0,0-.6-.4Zm5.4,2.6-1.8-.9a2.57,2.57,0,0,0-2.4.2l-1.7,1.1c-.7.4-.6,1,.1,1.3l1.8.9a2.32,2.32,0,0,0,2.4-.2l1.7-1.1a.61.61,0,0,0,.3-.9c0-.1-.2-.3-.4-.4Zm5.5,2.8-1.8-.9a2.57,2.57,0,0,0-2.4.2l-1.7,1.1c-.4.2-.6.6-.4.9a1.21,1.21,0,0,0,.5.5l1.8.9a2.57,2.57,0,0,0,2.4-.2l1.7-1.1c.4-.2.5-.7.3-.9,0-.4-.2-.5-.4-.5Z"/><path class="cls-74" d="M695.9,706.3l-84.3-41.8c-3.3-1.6-6.1-6.3-6.4-10.6l-4.1-63.8c-.3-4.2,2.2-6.3,5.5-4.6l84.3,41.8c3.3,1.6,6.1,6.3,6.4,10.6l4.1,63.8C701.6,705.9,699.1,707.9,695.9,706.3Z"/><path class="cls-76" d="M692.4,626.4l-84.3-41.9a3.72,3.72,0,0,0-3.4-.3,16.18,16.18,0,0,1-1.8,1,3.58,3.58,0,0,1,3.6.2l84.3,41.8c3.3,1.6,6.1,6.3,6.4,10.6l4.1,63.8c.2,2.6-.8,4.4-2.2,5a.76.76,0,0,0,.5-.2l1.8-1.2c1-.8,1.6-2.5,1.5-4.6l-4-63.8C698.5,632.7,695.7,628,692.4,626.4Z"/><ellipse class="cls-7" cx="774.9" cy="721.6" rx="21.5" ry="4.2"/><ellipse class="cls-7" cx="839.8" cy="684.3" rx="15.2" ry="2"/><ellipse class="cls-77" cx="774.9" cy="719.6" rx="21.5" ry="4.2"/><path class="cls-27" d="M790.5,712a36,36,0,0,1-1.2,4.4c-.3,1-.8,2.1-1.2,3.2l-25.1,2a1.24,1.24,0,0,1-1.4-1.3V720l2.6-17.1,26.8-2.8a27.53,27.53,0,0,1,.2,5c-.1,1.4-.2,2.9-.3,4.3A20.24,20.24,0,0,1,790.5,712Z"/><path class="cls-27" d="M764.2,703s11.6-9.7,13-10.3,12.8,1.5,13.8,7.6Z"/><path class="cls-30" d="M790.9,709.5a35.54,35.54,0,0,1-8.8.3c-4-.6-11.2.3-15.1.5-1.4,0-2.8.1-4,.2l.5-3.5a30.93,30.93,0,0,1,6.8-.1c3.2.4,7.6-1.4,11.1-.6,3.3.7,7.9-1.2,9.8-1A20.76,20.76,0,0,1,790.9,709.5Z"/><path class="cls-30" d="M790.5,712a36,36,0,0,1-1.2,4.4,32.35,32.35,0,0,1-8.3.2c-4-.6-11.2.3-15.1.5-1.4,0-2.8.1-4,.2l.5-3.5a30.93,30.93,0,0,1,6.8-.1c3.2.4,7.6-1.4,11.1-.6s8.2-1.3,10-1h.1l.1-.1Z"/><path class="cls-78" d="M777.5,692.9s.5-3,2.8-3.3,6,.2,5.8.9-2.3,3.2-4.3,3.2A20.42,20.42,0,0,1,777.5,692.9Z"/><path class="cls-78" d="M776.6,693.5h0c-.1-.1-.1-.1,0-.2s2-2.1,8.6-2.9a.1.1,0,0,1,.1.1h0a.1.1,0,0,1-.1.1h0c-6.5.8-8.4,2.8-8.4,2.8C776.8,693.6,776.7,693.6,776.6,693.5Z"/><path class="cls-78" d="M776.9,692.8h0l-1.9-1c-.1-.1-.1-.1-.1-.2s.1-.1.2-.1h0l1.9,1c.1.1.1.1.1.2S776.9,692.8,776.9,692.8Z"/><path class="cls-78" d="M772.3,692.6c-.1,0-.1-.1,0,0,0-1,1.4-1.9,1.5-1.9s.1,0,.2.1,0,.1-.1.2-1.3.9-1.4,1.6Z"/><path class="cls-78" d="M778,693.8s1.9-2.4,4-1.6,5.1,3.2,4.6,3.7-3.6,1.7-5.3.7A14.45,14.45,0,0,1,778,693.8Z"/><path class="cls-78" d="M776.9,694h0c0-.1,0-.1.1-.2s2.8-.9,8.9,1.7c.1,0,.1.1.1.2s-.1.1-.2.1h0c-6.1-2.5-8.7-1.7-8.7-1.7s-.2,0-.2-.1Z"/><path class="cls-78" d="M783.8,696.4h0l-1.2-1.8c-.1-.1,0-.1.1-.2s.1,0,.2.1h0l1.2,1.8c.1.1,0,.1,0,.2h0c-.2,0-.2,0-.3-.1Z"/><path class="cls-78" d="M779.9,694h0c.6-.9,2.2-.9,2.3-.9s.1.1.1.2a.1.1,0,0,1-.1.1s-1.6.1-2.1.8c0-.2-.1-.2-.2-.2Z"/><path class="cls-79" d="M773.5,692s-1.9,0-2,1.2A3.08,3.08,0,0,0,775,696a2.38,2.38,0,0,0,1.6-3.8C775.6,691.3,775,691.3,773.5,692Z"/><path class="cls-79" d="M773.7,691.6s-1.7.2-1.9.8.5.1.7.1-.1.3.2.3.5-.2.6-.5a.37.37,0,0,0,.3.1C774.1,692.5,774.8,691.6,773.7,691.6Z"/><path class="cls-79" d="M779.4,692.5s-1.3-1.4-2.2-.6a3.06,3.06,0,0,0,.2,4.4,2.39,2.39,0,0,0,3.9-1.4C781.3,693.5,780.9,693.1,779.4,692.5Z"/><path class="cls-79" d="M780.6,692.9s-1.3-1.1-1.8-.9.2.5.3.6-.3.1-.1.3a.88.88,0,0,0,.7.1c0,.1.1.2.1.3C780.1,693.8,781.3,693.7,780.6,692.9Z"/><path class="cls-80" d="M774.6,700.1c.1-.2.3-.2.5-.2s.2.3.2.5-.3.2-.5.2-.3-.4-.2-.5Z"/><path class="cls-80" d="M772.4,698.3c.1-.2.3-.2.5-.2s.2.3.2.5-.3.2-.5.2a.37.37,0,0,1-.2-.5Z"/><path class="cls-80" d="M778.8,699.3c.1-.2.3-.2.5-.2s.2.3.2.5-.3.2-.5.2a.32.32,0,0,1-.2-.5Z"/><path class="cls-80" d="M785.5,699.1c.1-.2.3-.2.5-.2s.2.3.2.5-.3.2-.5.2-.3-.3-.2-.5Z"/><path class="cls-81" d="M774.7,697.2c.1-.2.2-.3.3-.2s.2.2.2.3a.32.32,0,0,1-.3.3A.7.7,0,0,1,774.7,697.2Z"/><path class="cls-81" d="M779.9,697.4a.3.3,0,0,1,.6,0h0a.32.32,0,0,1-.3.3C780,697.8,779.9,697.6,779.9,697.4Z"/><path class="cls-81" d="M783.1,698.5a.3.3,0,1,1,.3.3h0C783.2,698.9,783.1,698.7,783.1,698.5Z"/><path class="cls-81" d="M770,700.4a.3.3,0,1,1,.3.3h0a.32.32,0,0,1-.3-.3Z"/><path class="cls-81" d="M787.5,698.3a.32.32,0,0,1,.3-.3h0a.3.3,0,0,1,0,.6A.27.27,0,0,1,787.5,698.3Z"/><path class="cls-82" d="M855.7,658.7l-2.5,17.8-.9,6.1-.2,1.8h-24l-.5-3.9v-.1l-3-21.8c0-.8,7-1.4,15.6-1.4S855.7,657.9,855.7,658.7Z"/><path class="cls-82" d="M853.8,675.7a7.65,7.65,0,1,1,7.6-7.7v.1A7.59,7.59,0,0,1,853.8,675.7Zm0-12.2a4.45,4.45,0,1,0,4.4,4.5v-.1a4.37,4.37,0,0,0-4.4-4.4Z"/><path class="cls-83" d="M853.3,676.5l-.9,6.1-24.8-2-.5-.1h.5C830.4,680.3,845.3,679.4,853.3,676.5Z"/><path class="cls-82" d="M865.4,680.4H814.9a20.9,20.9,0,0,0,12.5,4.2h25.5A20.26,20.26,0,0,0,865.4,680.4Z"/><rect class="cls-84" x="838.51" y="642.44" width="29.2" height="4.4" transform="translate(-179.8 921.16) rotate(-52.06)"/><path class="cls-84" d="M862.4,632.4c.9.8,1.3,1.8.9,2.3s-1.5.2-2.4-.6-1.3-1.8-.9-2.3S861.5,631.5,862.4,632.4Z"/><path class="cls-85" d="M854.4,649c.6,4.8-4.8,5.9-14,4.6-10.8-1.6-12.8-4-12.3-7.6s6.8-5.5,14-4.5S853.9,645.5,854.4,649Z"/><path class="cls-85" d="M858.1,656.4c.3,3.4-3.3,4.8-6.9,4.4-4.8-.5-10.2-2.9-13.7-2.1-15,3.3-16.6-1.8-14.1-6,2-3.4,8.8-6,18.5-4.6S857.6,651.8,858.1,656.4Z"/><path class="cls-85" d="M849.7,642.5c-1.5,2-4.6,3.1-9.3,2.5s-7.7-2-7.7-4.4c0-2,1.8-3.1,3.5-4.7a7.42,7.42,0,0,0,3-6.5s9.2,5.6,10.8,10.2A3,3,0,0,1,849.7,642.5Z"/><path class="cls-86" d="M844.1,644.4c-1.3,0-2.6-.1-3.9-.2-4.4-.5-7.1-1.3-7.8-2.6a1.42,1.42,0,0,1-.1-1.1.38.38,0,0,1,.7.3c-.1.2,0,.3.1.4.3.5,1.6,1.6,7.2,2.2,8.1.8,9-.9,9-1a.37.37,0,0,1,.5-.2h0a.37.37,0,0,1,.2.5h0C850,643,849.2,644.4,844.1,644.4Z"/><path class="cls-86" d="M846.3,653.5a63.3,63.3,0,0,1-11.5-1.3c-3.9-.8-6.3-2.1-7.2-4a3,3,0,0,1,0-2.9.37.37,0,0,1,.5-.2h0c.2.1.2.3.2.5a2.8,2.8,0,0,0,0,2.2c.5,1.1,2.1,2.6,6.6,3.5,9.2,1.9,17.9,1.6,18.9-.6a.38.38,0,0,1,.7.3h0C853.8,652.8,850.5,653.5,846.3,653.5Z"/><path class="cls-86" d="M850,639.6a7.74,7.74,0,0,1-5.2-.1c-2.1-1-2.7-3.1-4.4-3s-2.5,1.5-3.3,1.8-2.2-.6-.8-2.4a7.42,7.42,0,0,0,3-6.5C839.2,629.4,848.5,635,850,639.6Z"/><g class="cls-87"><path d="M581.3,576.1,567,567.8a5.72,5.72,0,0,0-5.1,0l-3.8,2.2-7.8,4.5-20.4,11.8a1.6,1.6,0,0,0,0,3l14.3,8.3a5.72,5.72,0,0,0,5.1,0L568,586.7l3-1.7,10.2-5.9C582.8,578.2,582.8,576.9,581.3,576.1Z"/></g><path class="cls-88" d="M565.5,565.6c.2.1.2.3,0,.5a1.1,1.1,0,0,1-.8,0c-.2-.1-.2-.3,0-.5A1.1,1.1,0,0,1,565.5,565.6Z"/><path class="cls-88" d="M576.8,572.2c.1.1.2.2.1.3a.75.75,0,0,1-.5-.1l-9.2-5.3c-.1-.1-.2-.2-.1-.3h.4Z"/><path class="cls-88" d="M567.1,566.9c-.1.1,0,.2.1.3l9.2,5.3a.75.75,0,0,0,.5.1l-.1.1a.85.85,0,0,1-.7,0l-9.2-5.3a.21.21,0,0,1,0-.4c.1-.1.1-.1.2-.1Z"/><path class="cls-88" d="M578.2,573.1q.3.15,0,.3a.64.64,0,0,1-.6,0q-.3-.15,0-.3A.63.63,0,0,1,578.2,573.1Z"/><path class="cls-64" d="M533.4,585.4c.1.1.1.1,0,.2l-.5.3a.19.19,0,0,1-.3,0l-.8-.5c-.1-.1-.1-.1,0-.2l.5-.3a.19.19,0,0,1,.3,0Z"/><path class="cls-88" d="M534.4,585.3a.21.21,0,0,1,0,.4l-.5.3a.85.85,0,0,1-.7,0h-.1a.85.85,0,0,1-.7,0l-.8-.5a.21.21,0,0,1,0-.4l.5-.3a.85.85,0,0,1,.7,0h0a.85.85,0,0,1,.7,0Zm-.7.6.5-.3c.1-.1.1-.1,0-.2l-.8-.5a.19.19,0,0,0-.3,0H533l.7.4a.21.21,0,0,1,0,.4l-.3.1h0c.1.2.2.2.3.1m-.8,0,.5-.3c.1-.1.1-.1,0-.2l-.8-.5a.19.19,0,0,0-.3,0l-.5.3c-.1.1-.1.1,0,.2l.8.5a.19.19,0,0,0,.3,0"/><polygon class="cls-27" points="578.3 575.9 549.4 592.7 532.4 582.9 561.2 566.1 578.3 575.9"/><path class="cls-64" d="M541.9,589.9c.2.1.2.3,0,.5l-.3.2a1.1,1.1,0,0,1-.8,0l-4.7-2.7c-.2-.1-.2-.3,0-.5l.3-.2a1.1,1.1,0,0,1,.8,0Z"/><path class="cls-88" d="M542.1,589.8a.38.38,0,0,1,0,.7l-.2.1a1.08,1.08,0,0,1-1.1,0l-4.7-2.7a.38.38,0,0,1,0-.7l.2-.1a1.08,1.08,0,0,1,1.1,0Zm-.5.7.3-.2c.2-.1.2-.3,0-.5l-4.7-2.7a1.1,1.1,0,0,0-.8,0l-.3.2c-.2.1-.2.3,0,.5l4.7,2.7a1.1,1.1,0,0,0,.8,0"/><path class="cls-88" d="M545.6,591.7l-.2.1.8.5q.45.3,0,.6a.9.9,0,0,1-1,0l-1.3-.7c-.1,0-.1-.1,0-.1h.2l1.3.7a.64.64,0,0,0,.6,0c.2-.1.2-.3,0-.3l-.8-.5-.2.1-.3-.6Z"/><path class="cls-76" d="M557.6,566.8l-7.8,4.5-.2-.1a.21.21,0,0,1,0-.4l7.1-4.1a.85.85,0,0,1,.7,0Z"/><path class="cls-64" d="M534.2,585.4c.1.1.1.1,0,.2l-.5.3a.19.19,0,0,1-.3,0h0l.3-.1a.21.21,0,0,0,0-.4l-.7-.4h.1a.19.19,0,0,1,.3,0Z"/><path class="cls-74" d="M548.9,594.4l18.7-10.9v2l-18.7,10.9a5.72,5.72,0,0,1-5.1,0l-14.3-8.3a1.94,1.94,0,0,1-1.1-1.5v-2a1.94,1.94,0,0,0,1.1,1.5l14.3,8.3A5.72,5.72,0,0,0,548.9,594.4Z"/><path class="cls-74" d="M581.9,574.3v2a1.94,1.94,0,0,1-1.1,1.5l-10.2,5.9v-2l10.2-5.9A1.63,1.63,0,0,0,581.9,574.3Z"/><path class="cls-76" d="M571,582v2c0,.1,0,.1-.1.2l-2.3,1.4a.85.85,0,0,1-.7,0l-.2-.1v-2l.2.1a.85.85,0,0,0,.7,0l2.3-1.4h.1C570.9,582.1,571,582.1,571,582Z"/><path class="cls-76" d="M571,582h0c-.1.1-.1.1-.2.1l-2.3,1.4a.85.85,0,0,1-.7,0l-.2-.1,3-1.7.2.1Z"/><path class="cls-74" d="M580.9,572.8l-14.3-8.3a5.72,5.72,0,0,0-5.1,0l-3.8,2.2-7.8,4.5L529.5,583a1.6,1.6,0,0,0,0,3l14.3,8.3a5.72,5.72,0,0,0,5.1,0l18.7-10.9,3-1.7,10.2-5.9C582.3,575,582.3,573.6,580.9,572.8Zm.3,2.3a.35.35,0,0,1-.2.1,5.58,5.58,0,0,1-.8.5l-1.7,1-6.7,3.9c-4.5,2.6-8.9,5.2-13.3,7.8l-6.7,3.9-3.3,1.9a.35.35,0,0,0-.2.1,5.52,5.52,0,0,1-4,0L531,586.6l-.8-.5a.35.35,0,0,1-.2-.1.1.1,0,0,1-.1-.1,1.38,1.38,0,0,1-.4-.3,1.23,1.23,0,0,1,0-1.9,9.22,9.22,0,0,1,.8-.5l1.7-1,.2-.1,6.5-3.8,13.3-7.8,6.7-3.9,3.3-1.9c.1-.1.3-.1.4-.2a5.25,5.25,0,0,1,3.5,0c.1,0,.1.1.2.1l13.4,7.8.8.5a.35.35,0,0,1,.2.1l.1.1a1.38,1.38,0,0,1,.4.3c.1,0,.1.1.2.1A1.22,1.22,0,0,1,581.2,575.1Z"/><path class="cls-64" d="M581.1,573.5a.35.35,0,0,0-.2-.1c-.1-.1-.3-.2-.4-.3l-.1-.1a.35.35,0,0,1-.2-.1l-.8-.5L566,564.6c-.1,0-.1-.1-.2-.1a5.25,5.25,0,0,0-3.5,0c-.1.1-.3.1-.4.2l-3.3,1.9-6.7,3.9-13.3,7.8-6.5,3.8-.2.1-1.7,1a5.58,5.58,0,0,0-.8.5,1.3,1.3,0,0,0,0,1.9c.1.1.3.2.4.3l.1.1a.35.35,0,0,1,.2.1l.8.5,13.3,7.7a4.67,4.67,0,0,0,4,0,.35.35,0,0,0,.2-.1l3.3-1.9,6.7-3.9c4.4-2.6,8.9-5.2,13.3-7.8l6.7-3.9,1.7-1a5.58,5.58,0,0,0,.8-.5c.1,0,.1-.1.2-.1A1,1,0,0,0,581.1,573.5Zm-46.7,12.2-.5.3a.85.85,0,0,1-.7,0h-.1a.85.85,0,0,1-.7,0l-.8-.5a.21.21,0,0,1,0-.4l.5-.3a.85.85,0,0,1,.7,0h0a.85.85,0,0,1,.7,0l.8.5C534.6,585.4,534.6,585.6,534.4,585.7Zm7.7,4.8-.2.1a1.08,1.08,0,0,1-1.1,0l-4.7-2.7a.38.38,0,0,1,0-.7l.2-.1a1.08,1.08,0,0,1,1.1,0l4.7,2.7A.38.38,0,0,1,542.1,590.5Zm4.1,2.5a.9.9,0,0,1-1,0l-1.3-.7c-.1,0-.1-.1,0-.1h.2l1.3.7a.64.64,0,0,0,.6,0c.2-.1.2-.3,0-.3l-.8-.5-.2.1-.3-.6,1,.2-.2.1.8.5A.48.48,0,0,1,546.2,593Zm25.2-13.1-22,12.8-17-9.8,6.5-3.8,22.4-13,17,9.8Z"/><path class="cls-89" d="M578.2,573.4a.64.64,0,0,1-.6,0q-.3-.15,0-.3a.64.64,0,0,1,.6,0Q578.5,573.25,578.2,573.4Z"/><path class="cls-89" d="M576.8,572.6a.63.63,0,0,1-.6,0l-9.2-5.3a.21.21,0,0,1,0-.4h.1c.2-.1.4,0,.5,0l9.2,5.3A.21.21,0,0,1,576.8,572.6Z"/><path class="cls-89" d="M565.5,566.1a1.1,1.1,0,0,1-.8,0c-.2-.1-.2-.3,0-.5a1.1,1.1,0,0,1,.8,0C565.7,565.7,565.7,565.9,565.5,566.1Z"/></g></svg>